<?xml version="1.0" encoding="utf-8"?>
<!-- Generator: Adobe Illustrator 22.1.0, SVG Export Plug-In . SVG Version: 6.00 Build 0)  -->
<svg version="1.1" id="Layer_1" xmlns="http://www.w3.org/2000/svg" xmlns:xlink="http://www.w3.org/1999/xlink" x="0px" y="0px"
	 viewBox="0 0 669.9 1167.2" style="enable-background:new 0 0 669.9 1167.2;" xml:space="preserve">
<title></title>
<g id="icomoon-ignore">
</g>
<path d="M257.8,1148c-8.1,0-16.5-0.5-24.8-1.5c-122.6-14.9-194.3-112.9-201.8-275.8c-5.8-126,29.4-280.7,87.7-384.9
	c35.4-63.2,79.5-125.3,131.2-184.5c51.6-59.1,112.1-117,179.8-172.1c3.5-2.8,7.9-4.4,12.4-4.4c5.9,0,11.5,2.6,15.2,7.3
	c6.8,8.4,5.5,20.8-2.9,27.6c-65.9,53.6-124.7,109.8-174.8,167.1c-50,57.2-92.6,117.2-126.7,178.2c-26.1,46.7-48.7,107.9-63.6,172.4
	c-15.3,66.5-21.9,132.7-19.2,191.5c3.3,70.4,19,126.6,46.9,167.1c28.3,41.2,68.9,65.3,120.5,71.6c6.5,0.8,13.1,1.2,19.5,1.2
	c45,0,86.8-19.7,120.9-57.1c33.5-36.7,58.2-88.7,71.5-150.2c8.8-41,11.3-81.1,7.1-116.1c-4-33.8-14-61.4-28.9-79.9
	c-13.4-16.6-30-25-49.2-25c-70.3,0-117.9,19-154.4,61.5c-35,40.9-61.5,104.5-88.6,212.7c-2.2,8.8-10,14.9-19,14.9
	c-1.6,0-3.2-0.2-4.8-0.6c-10.5-2.6-16.9-13.3-14.3-23.8c26.7-106.5,49-163.1,82.4-209c46.5-63.9,111.5-94.9,198.7-94.9
	c31.7,0,59.4,13.4,79.8,38.8c19.1,23.7,31.9,57.5,37,98c5.1,40,2.5,85.6-7.5,131.8c-15,69.7-43.7,128.8-83,170.9
	C363.8,1124.7,313,1148,257.8,1148z"/>
</svg>
