<?xml version="1.0" standalone="no"?>
<!DOCTYPE svg PUBLIC "-//W3C//DTD SVG 20010904//EN"
 "http://www.w3.org/TR/2001/REC-SVG-20010904/DTD/svg10.dtd">
<svg version="1.0" xmlns="http://www.w3.org/2000/svg"
 width="1076.000000pt" height="1076.000000pt" viewBox="0 0 1076.000000 1076.000000"
 preserveAspectRatio="xMidYMid meet">
<metadata>
Created by potrace 1.11, written by Peter Selinger 2001-2013
</metadata>
<g transform="translate(0.000000,1076.000000) scale(0.100000,-0.100000)"
fill="#000000" stroke="none">
<path d="M4634 8195 c-12 -13 -24 -31 -27 -40 -6 -13 -3 -14 16 -5 22 11 22
11 2 -7 -11 -10 -27 -27 -35 -37 -14 -18 -13 -18 20 -11 19 4 41 12 49 18 10
9 16 7 26 -6 16 -23 24 -22 18 3 -4 16 0 20 20 20 14 0 28 7 31 17 4 10 4 14
0 11 -4 -4 -15 -3 -25 3 -14 7 -25 5 -43 -6 -23 -15 -24 -15 -20 2 3 10 1 28
-3 40 l-8 22 -21 -24z"/>
<path d="M4724 8205 c-9 -22 1 -29 15 -11 8 10 9 16 1 21 -5 3 -13 -1 -16 -10z"/>
<path d="M4981 8151 c-29 -40 -26 -46 9 -21 17 12 30 28 30 36 0 23 -17 16
-39 -15z"/>
<path d="M4926 8155 c-17 -13 -18 -15 -2 -21 20 -8 29 -1 24 20 -3 13 -6 13
-22 1z"/>
<path d="M4870 8141 c0 -21 13 -41 26 -41 17 0 18 22 2 38 -14 14 -28 16 -28
3z"/>
<path d="M4460 8134 c0 -15 45 -55 53 -47 13 13 7 33 -11 33 -10 0 -23 5 -30
12 -7 7 -12 8 -12 2z"/>
<path d="M5184 8115 c-9 -22 1 -29 15 -11 8 10 9 16 1 21 -5 3 -13 -1 -16 -10z"/>
<path d="M5227 8091 c-3 -13 1 -21 14 -24 11 -3 19 -1 19 4 0 5 4 9 10 9 5 0
7 -7 4 -15 -8 -19 7 -19 32 0 19 14 19 14 -1 15 -11 0 -29 7 -39 15 -26 20
-33 19 -39 -4z"/>
<path d="M3920 8085 c0 -8 5 -15 10 -15 6 0 10 7 10 15 0 8 -4 15 -10 15 -5 0
-10 -7 -10 -15z"/>
<path d="M3955 8085 c-3 -8 -7 -22 -10 -30 -7 -23 -24 -18 -31 10 -3 14 -10
25 -14 25 -20 0 -40 -13 -40 -26 0 -8 -11 -14 -27 -14 -25 0 -25 -1 -10 -18
19 -21 22 -48 7 -57 -18 -11 -42 17 -37 42 7 37 -10 37 -35 -1 -15 -23 -33
-37 -54 -41 -23 -4 -34 -12 -38 -30 -4 -14 -13 -25 -22 -25 -9 0 -14 -7 -12
-17 5 -26 22 -26 52 2 27 25 46 29 53 9 3 -9 -17 -22 -68 -44 -14 -6 -31 -22
-37 -35 -14 -30 -32 -33 -32 -5 0 11 -7 20 -15 20 -17 0 -21 -45 -5 -55 7 -4
3 -19 -10 -39 -24 -40 -25 -46 -5 -46 18 0 20 -16 3 -26 -6 -4 -17 1 -24 10
-18 25 -29 0 -13 -31 11 -20 11 -26 -1 -33 -23 -15 -28 -12 -22 15 3 18 0 25
-12 25 -12 0 -16 -10 -16 -39 0 -43 -18 -65 -26 -34 -4 15 -12 19 -30 15 -26
-5 -30 -12 -13 -29 9 -9 6 -19 -10 -39 -11 -15 -21 -35 -21 -45 0 -11 -4 -19
-10 -19 -5 0 -10 -8 -10 -17 0 -9 -14 -31 -31 -49 -30 -31 -30 -32 -10 -39 12
-3 21 -11 21 -17 0 -5 -6 -8 -14 -5 -9 4 -23 -7 -37 -28 -13 -18 -27 -31 -32
-28 -5 3 -3 9 4 14 7 4 10 11 6 15 -10 10 -37 -16 -37 -36 0 -17 23 -44 31
-36 2 2 5 -15 7 -39 2 -47 -12 -69 -23 -35 -8 24 -52 24 -47 0 6 -25 -8 -60
-23 -60 -8 0 -15 5 -15 10 0 6 -4 10 -10 10 -13 0 -13 -73 0 -86 14 -14 -10
-72 -33 -78 -19 -5 -19 -5 2 -32 21 -26 19 -56 -2 -35 -14 14 -27 14 -27 -1 0
-6 -6 -19 -13 -27 -8 -9 -20 -31 -27 -49 -11 -28 -10 -35 4 -51 18 -20 22 -51
6 -51 -5 0 -10 9 -10 20 0 11 -4 20 -9 20 -5 0 -16 3 -25 6 -20 8 -21 -13 -1
-32 20 -21 20 -75 0 -68 -12 5 -14 -1 -11 -27 3 -19 5 -38 5 -42 1 -5 6 -5 11
-2 17 10 11 -22 -6 -36 -12 -9 -14 -23 -10 -49 7 -44 -16 -86 -34 -60 -5 8 -7
29 -4 45 3 17 1 41 -4 55 l-9 25 -16 -31 c-18 -35 -18 -81 0 -92 6 -4 13 -16
15 -27 2 -14 -3 -21 -18 -23 -14 -2 -22 -11 -23 -25 -1 -12 -3 -35 -4 -52 -2
-24 2 -29 16 -27 23 4 22 -10 -3 -38 -24 -28 -27 -78 -4 -87 8 -3 20 -1 27 6
19 19 35 13 29 -14 -3 -20 -9 -24 -26 -19 -14 3 -28 -2 -40 -15 -13 -14 -15
-21 -6 -21 10 0 12 -21 7 -96 -5 -89 -4 -97 14 -101 25 -7 25 -33 0 -33 -15 0
-20 -10 -26 -46 -5 -34 -3 -49 7 -55 9 -6 14 -2 16 11 2 12 11 20 23 20 24 0
24 -8 -2 -28 -18 -15 -19 -22 -10 -62 10 -45 5 -72 -10 -49 -6 11 -9 10 -14
-4 -9 -23 17 -47 44 -40 25 6 28 -9 6 -27 -19 -16 -17 -111 3 -118 7 -2 27 13
45 34 17 20 37 40 42 45 6 4 29 25 53 45 28 24 46 34 53 27 6 -6 1 -14 -15
-22 -13 -7 -26 -25 -29 -40 -6 -29 -57 -91 -75 -91 -7 0 -12 -7 -12 -15 0 -8
-11 -25 -25 -39 -14 -14 -25 -36 -25 -49 0 -12 -5 -28 -12 -35 -6 -6 -9 -14
-6 -18 4 -3 15 7 24 23 10 15 36 47 58 71 23 23 44 49 49 58 4 8 13 12 18 8 6
-3 18 1 27 9 9 8 26 17 36 18 28 6 33 30 5 27 -12 -2 -24 2 -26 8 -6 17 27 26
43 13 15 -12 44 -6 44 10 0 6 -11 13 -25 17 -14 3 -25 10 -25 14 0 18 64 27
75 10 3 -5 -3 -30 -15 -54 -24 -53 -25 -70 -6 -63 10 4 16 -2 18 -16 3 -19 6
-17 22 15 10 21 22 35 27 32 5 -3 17 0 28 5 16 9 23 6 40 -22 11 -17 21 -27
21 -20 0 6 3 18 6 27 4 11 0 16 -12 16 -16 0 -16 2 4 16 22 15 32 74 12 74 -5
0 -10 -3 -10 -7 0 -5 -12 -14 -28 -21 -23 -11 -29 -10 -39 5 -21 27 -17 46 6
33 24 -12 36 2 23 27 -7 12 -5 21 6 32 14 15 14 16 0 19 -11 2 -16 14 -16 38
0 27 4 34 19 34 21 0 25 -20 8 -37 -7 -7 1 -10 27 -9 41 1 57 20 23 29 -13 3
-18 10 -14 17 4 7 16 10 26 7 13 -4 19 0 19 11 0 11 6 6 15 -12 8 -15 12 -32
9 -37 -3 -5 -1 -9 4 -9 5 0 12 9 15 20 6 23 26 27 32 5 15 -48 16 -48 27 -37
7 7 13 22 15 34 5 30 10 33 28 18 12 -10 15 -9 16 6 0 16 2 15 10 -4 5 -13 7
-28 4 -33 -3 -5 -1 -17 4 -27 7 -13 7 -22 0 -29 -7 -7 -3 -10 14 -10 19 0 24
3 19 15 -4 12 1 11 22 -6 22 -17 32 -19 47 -11 16 8 21 5 29 -17 6 -15 8 -29
5 -32 -3 -3 -5 -2 -5 2 0 4 -7 1 -15 -7 -8 -9 -24 -13 -35 -10 -14 4 -26 -1
-35 -13 -19 -26 -18 -32 5 -39 11 -3 20 -13 20 -21 0 -25 -38 -15 -64 19 -24
29 -26 30 -26 10 0 -13 -4 -23 -10 -23 -5 0 -10 -7 -10 -15 0 -8 -9 -15 -20
-15 -10 0 -24 -9 -30 -21 -9 -16 -17 -19 -41 -14 -24 6 -31 3 -41 -19 -8 -19
-17 -25 -29 -21 -12 4 -23 -1 -31 -14 -9 -15 -15 -17 -25 -9 -10 8 -19 5 -35
-13 -15 -17 -19 -19 -15 -6 7 18 -8 24 -18 7 -4 -6 -10 -8 -15 -5 -5 3 -12 0
-16 -6 -3 -6 -1 -15 6 -19 9 -6 7 -10 -8 -15 -12 -3 -21 -11 -19 -17 1 -5 -7
-15 -17 -21 -11 -7 -30 -23 -42 -35 -13 -13 -28 -21 -33 -17 -6 3 -11 1 -11
-4 0 -6 -7 -11 -15 -11 -8 0 -15 -9 -15 -20 0 -13 -10 -24 -25 -30 -14 -5 -25
-16 -25 -25 0 -8 -9 -15 -19 -15 -11 0 -23 -9 -26 -20 -3 -11 -15 -20 -24 -20
-23 0 -77 -69 -73 -92 2 -10 -2 -18 -8 -18 -17 0 -70 -56 -70 -73 0 -8 -7 -17
-15 -21 -8 -3 -15 -14 -15 -24 0 -11 -6 -25 -13 -31 -8 -6 -19 -30 -26 -53 -7
-24 -17 -50 -21 -59 -17 -33 -22 -87 -10 -110 25 -48 99 -154 119 -171 12 -10
39 -21 61 -24 33 -5 47 -2 78 19 59 41 118 50 207 30 48 -10 75 -21 75 -30 0
-7 -6 -13 -13 -13 -24 0 -65 -54 -72 -96 -4 -28 2 -80 19 -162 20 -100 31
-130 61 -174 39 -56 57 -66 63 -33 2 11 9 26 14 32 16 20 65 16 81 -7 13 -18
16 -19 27 -5 7 8 16 15 19 15 10 0 44 -88 72 -187 14 -46 31 -86 41 -92 25
-15 24 13 -2 79 -11 28 -20 63 -20 77 0 15 -6 34 -14 42 -29 32 -126 311 -126
361 0 11 -9 53 -20 92 -30 109 -23 170 11 101 8 -16 20 -28 28 -28 8 0 25 -33
41 -83 76 -221 190 -335 350 -348 l55 -4 -60 18 c-107 33 -165 70 -165 106 0
16 -2 18 -9 7 -13 -20 -32 -3 -75 68 -52 86 -87 187 -85 246 1 27 -3 63 -9 78
-21 51 -13 51 34 2 33 -36 44 -55 42 -74 -2 -21 -8 -25 -26 -23 -20 3 -22 1
-12 -15 6 -10 27 -43 45 -73 19 -30 44 -74 56 -98 26 -55 56 -68 104 -45 34
16 41 30 36 77 -1 14 11 7 49 -28 57 -54 170 -111 170 -87 0 4 -15 12 -34 19
-154 56 -246 255 -246 532 0 111 2 121 23 141 12 11 32 25 45 30 14 5 22 16
20 26 -6 32 112 77 282 107 14 3 -14 3 -62 0 -108 -5 -180 -31 -242 -85 -48
-43 -141 -85 -151 -69 -3 5 -1 28 4 51 12 53 93 141 113 121 9 -9 18 -7 42 11
46 33 94 54 156 68 30 6 66 16 80 22 14 5 46 9 73 8 47 -2 57 5 35 27 -9 9 -7
12 9 12 12 0 30 10 40 23 10 12 36 31 58 42 22 11 42 22 45 26 3 3 48 16 100
28 52 12 127 32 165 45 39 13 102 30 140 39 219 50 260 58 322 59 l68 2 3 -37
c2 -20 5 -37 7 -37 10 0 63 26 88 43 24 16 28 16 33 3 5 -13 10 -12 34 6 16
11 35 18 43 15 8 -3 31 0 50 7 36 12 68 10 262 -14 73 -9 95 -15 115 -35 15
-14 32 -25 39 -25 7 0 11 -6 9 -12 -3 -8 -33 -16 -74 -20 -75 -7 -133 -17
-327 -55 -132 -25 -184 -27 -179 -5 3 19 -13 14 -38 -12 -12 -14 -37 -28 -54
-32 -17 -4 -58 -15 -91 -26 -70 -22 -289 -73 -357 -83 -44 -7 -48 -6 -48 13 0
12 -5 24 -11 27 -17 11 -22 -2 -9 -25 6 -12 8 -25 4 -28 -4 -4 -9 -1 -11 6 -3
6 -10 12 -17 12 -7 0 -25 14 -41 30 -16 17 -34 30 -41 30 -22 0 -27 -21 -8
-34 15 -12 12 -13 -27 -14 -64 -1 -91 -7 -116 -23 -28 -17 -29 -25 -3 -32 11
-3 20 -10 20 -16 0 -13 -25 -19 -113 -24 -79 -5 -116 -26 -52 -28 27 -1 32 -3
15 -6 -33 -6 -112 -34 -127 -46 -7 -5 -18 -7 -25 -5 -7 3 -29 -1 -48 -8 -23
-8 -28 -13 -15 -13 34 -1 227 28 288 44 63 16 180 10 174 -9 -2 -5 -44 -18
-93 -28 -49 -9 -98 -22 -109 -27 -11 -6 -42 -12 -70 -15 -27 -3 -52 -5 -55 -6
-3 0 3 -7 13 -14 16 -13 14 -16 -30 -48 -26 -19 -75 -49 -108 -67 -33 -18 -77
-49 -97 -69 -21 -19 -40 -33 -43 -30 -4 3 6 29 20 57 24 45 67 92 107 118 7 4
20 17 28 28 13 18 13 19 0 9 -8 -6 -26 -14 -40 -17 -60 -15 -128 -98 -145
-177 -4 -17 -11 -30 -16 -30 -16 0 -9 -54 11 -85 97 -148 120 -169 120 -113 0
19 9 53 20 76 24 49 25 59 5 42 -8 -7 -22 -9 -31 -6 -15 6 -15 8 -2 24 9 9 18
30 22 46 8 31 66 96 86 96 12 0 11 -12 -5 -80 -4 -20 3 -34 32 -65 35 -37 41
-40 88 -38 73 3 101 19 126 69 11 24 25 44 29 44 5 0 26 -11 46 -25 l37 -25
33 25 c24 19 40 24 59 19 25 -6 35 8 15 21 -18 11 -10 26 23 40 17 7 41 28 52
44 11 17 23 31 26 31 16 0 29 -31 35 -82 6 -54 6 -56 -22 -69 -38 -19 -56 -76
-30 -95 10 -7 25 -10 33 -7 19 7 13 -25 -24 -137 -41 -127 -101 -208 -220
-296 -80 -60 -247 -79 -348 -39 -20 8 -20 8 -1 -13 13 -15 31 -22 55 -22 28 0
33 -3 21 -11 -11 -8 -6 -9 20 -5 87 13 140 18 140 12 0 -11 -76 -43 -175 -74
-146 -46 -189 -54 -221 -42 -39 15 -48 -1 -18 -34 23 -24 31 -27 67 -20 23 3
48 10 57 15 36 20 230 109 237 109 19 0 283 133 283 142 0 5 8 8 18 7 73 -7
129 34 232 172 88 118 180 323 180 402 0 37 20 51 35 26 4 -6 13 -8 20 -5 7 2
20 -3 29 -13 20 -22 20 -31 0 -31 -22 0 -11 -25 12 -26 10 -1 24 -2 30 -3 7
-1 31 -27 55 -58 23 -32 47 -61 53 -65 6 -4 5 -12 -3 -22 -12 -14 -8 -24 27
-68 35 -45 39 -55 31 -81 -11 -38 -15 -42 -33 -28 -8 7 -17 8 -20 3 -7 -12 16
-62 30 -62 6 0 41 -34 78 -75 37 -41 74 -75 82 -75 18 0 18 6 -5 44 -10 17
-22 51 -26 76 -8 47 -33 80 -60 80 -13 0 -15 8 -10 43 6 38 3 45 -27 76 -34
36 -25 34 27 -4 17 -12 54 -35 83 -50 60 -32 67 -39 65 -80 -1 -16 1 -22 3
-12 6 19 19 22 29 7 10 -16 35 -12 29 5 -9 22 0 19 74 -25 109 -66 164 -78
337 -72 137 5 148 4 142 -12 -4 -10 -7 -22 -7 -27 0 -5 -21 -9 -47 -9 l-48 -1
63 -29 c35 -16 61 -34 58 -39 -4 -5 -1 -11 5 -13 11 -4 -18 -80 -33 -86 -5 -2
-8 -10 -8 -18 0 -9 -5 -12 -11 -8 -8 5 -9 -5 -4 -34 5 -31 2 -50 -15 -82 -15
-28 -20 -53 -16 -71 3 -16 1 -29 -4 -29 -6 0 -10 -8 -10 -19 0 -10 -7 -25 -16
-32 -14 -11 -19 -10 -33 6 -9 11 -27 21 -41 22 -14 2 -42 4 -62 5 -26 2 -44
11 -61 32 -14 16 -29 26 -35 22 -13 -8 -42 3 -42 15 0 5 7 9 15 9 28 0 15 37
-40 113 -80 112 -135 228 -137 292 -1 30 -5 34 -35 40 -18 3 -37 4 -42 1 -5
-3 -4 -27 1 -53 8 -36 25 -64 68 -113 56 -63 91 -125 89 -159 0 -9 -3 -11 -5
-4 -3 7 -11 10 -18 7 -8 -3 -40 18 -71 45 -58 51 -75 60 -75 41 0 -5 -34 -33
-76 -61 -73 -49 -79 -51 -128 -46 -54 5 -85 -7 -149 -60 -16 -13 -41 -23 -57
-23 -16 0 -41 -5 -56 -10 -19 -8 -48 -7 -100 1 -57 10 -84 10 -131 0 -32 -7
-68 -15 -81 -17 -31 -6 -39 -32 -19 -65 15 -27 14 -28 -4 -34 -11 -4 -17 -10
-14 -15 3 -4 2 -15 -1 -24 -5 -12 -10 -14 -19 -6 -18 15 -105 10 -105 -7 0 -7
-9 -13 -20 -13 -11 0 -20 3 -20 8 0 9 -49 32 -68 32 -8 0 -11 -7 -7 -19 7 -24
-15 -33 -97 -40 -22 -1 -24 -21 -3 -21 11 0 15 -12 15 -45 0 -41 -2 -45 -24
-45 -15 0 -26 -7 -29 -20 -4 -14 -14 -20 -34 -20 l-28 -1 30 -13 c17 -7 32 -9
33 -4 8 18 22 7 22 -17 0 -15 -5 -25 -12 -24 -7 1 -21 -1 -30 -4 -10 -4 -25
-9 -34 -12 -10 -3 -13 -11 -9 -25 4 -12 0 -26 -9 -36 -9 -8 -16 -23 -16 -32 0
-9 -9 -32 -20 -50 -13 -22 -18 -41 -14 -55 7 -21 7 -21 26 2 28 36 36 15 10
-29 -12 -21 -22 -45 -22 -53 0 -7 -8 -22 -19 -33 -27 -30 -41 -59 -41 -89 0
-26 -2 -27 -40 -23 -40 4 -57 -13 -25 -26 24 -9 17 -31 -13 -42 -22 -9 -31 -7
-46 8 -19 18 -19 19 -1 32 18 13 18 14 -3 44 -12 16 -22 33 -22 37 0 16 -34
32 -56 27 -31 -6 -30 -23 3 -64 16 -18 32 -39 38 -46 5 -7 18 -22 28 -33 9
-10 17 -27 17 -36 0 -15 2 -16 10 -3 9 13 14 7 11 -12 0 -4 10 -24 24 -44 14
-20 25 -43 25 -50 0 -7 9 -16 20 -19 11 -3 20 -15 20 -26 0 -25 -42 -42 -74
-29 -31 11 -90 89 -112 145 -10 26 -25 47 -37 51 -15 5 -16 8 -6 14 11 7 10
22 -5 85 -22 94 -19 107 25 95 18 -5 34 -8 36 -6 2 2 -1 16 -7 32 -27 68 -50
241 -50 366 l0 128 -29 0 c-46 0 -55 -20 -48 -110 7 -103 -1 -160 -21 -160
-13 0 -14 -17 -8 -124 8 -150 19 -214 58 -331 30 -91 74 -173 112 -210 11 -12
40 -42 63 -68 23 -26 49 -47 58 -47 9 0 27 -8 42 -17 14 -9 44 -20 67 -23 33
-4 41 -9 39 -25 -11 -90 12 -195 41 -195 37 0 46 53 21 134 -8 27 -17 72 -20
100 -8 83 -11 87 -54 80 -57 -9 -140 39 -109 63 30 23 104 44 134 38 32 -6 94
-59 94 -80 0 -6 16 -34 35 -61 19 -27 35 -53 35 -57 0 -5 18 -29 40 -54 21
-25 48 -69 59 -99 11 -29 36 -75 56 -102 19 -27 35 -53 35 -58 1 -5 19 -27 41
-49 41 -40 78 -109 84 -153 4 -33 30 -57 77 -71 23 -7 52 -20 65 -28 27 -18
57 -69 50 -87 -13 -34 57 -312 88 -346 25 -28 18 -56 -19 -79 -40 -25 -43 -32
-41 -88 1 -24 -2 -43 -7 -43 -5 0 -6 5 -3 10 8 14 -18 13 -32 -1 -7 -7 -30 -9
-60 -5 -162 19 -153 19 -153 -13 0 -20 -6 -30 -20 -34 -11 -3 -20 -10 -20 -16
0 -17 47 -13 54 4 6 16 36 10 36 -7 0 -5 10 -18 21 -27 l21 -17 -32 -27 c-17
-15 -40 -27 -51 -27 -31 0 -22 -16 19 -35 20 -10 46 -24 56 -31 19 -13 19 -14
-5 -23 l-24 -10 22 -7 c13 -3 21 -9 18 -13 -2 -4 4 -21 14 -37 20 -33 82 -55
140 -50 19 2 51 -1 70 -6 20 -5 44 -11 55 -13 10 -2 34 -14 55 -26 45 -27 80
-31 106 -13 11 8 27 14 35 14 9 0 30 16 47 35 30 34 31 34 62 19 17 -8 31 -19
31 -22 0 -4 18 -15 40 -26 47 -23 54 -37 35 -73 -20 -38 -19 -57 4 -77 22 -20
41 -14 41 12 1 23 21 48 46 56 11 3 27 17 34 31 13 25 56 45 95 45 12 0 34 11
49 25 61 57 71 60 121 36 25 -11 48 -21 52 -21 5 0 27 -15 50 -34 29 -23 61
-37 102 -45 33 -7 63 -16 66 -21 15 -24 -143 -204 -225 -255 -83 -53 -221
-125 -239 -125 -9 0 -21 -4 -26 -9 -13 -11 -166 -58 -235 -72 -30 -6 -105 -10
-166 -10 -61 1 -122 -3 -135 -7 -21 -8 -18 -11 31 -29 169 -63 350 -64 520 -5
64 23 140 63 210 112 41 29 146 137 222 230 68 82 97 89 145 35 17 -20 35 -46
39 -58 9 -30 58 -74 102 -93 21 -8 55 -34 77 -58 24 -25 57 -48 80 -56 22 -7
49 -20 60 -30 11 -10 30 -21 41 -24 12 -4 29 -15 39 -26 12 -13 31 -20 56 -20
25 0 47 -8 67 -25 17 -14 42 -25 60 -25 16 0 46 -7 65 -15 20 -8 54 -15 76
-15 22 0 42 -4 45 -9 3 -5 25 -5 51 0 30 6 54 5 70 -3 19 -9 32 -7 69 10 34
17 55 20 94 15 49 -5 51 -5 67 26 9 18 28 37 43 44 49 21 83 64 102 129 10 35
25 76 33 91 10 20 13 48 10 98 -3 59 -1 73 16 96 12 14 21 32 21 40 0 7 12 19
28 26 15 6 41 21 59 33 l32 22 58 -28 c105 -51 126 -60 144 -60 10 0 26 -11
34 -24 9 -13 35 -33 59 -44 23 -11 48 -27 55 -36 8 -9 19 -16 26 -16 7 0 24
-9 38 -20 15 -12 30 -20 34 -19 4 1 16 -15 26 -35 16 -34 20 -36 51 -31 28 6
36 2 56 -23 14 -17 28 -28 33 -25 12 7 48 -28 40 -40 -4 -6 18 -7 65 -3 83 8
97 4 81 -26 -8 -14 -8 -27 1 -48 12 -30 0 -70 -21 -70 -16 0 -36 -24 -53 -64
-8 -20 -19 -36 -24 -36 -6 0 -13 -11 -16 -25 -4 -14 -11 -25 -17 -25 -6 0 -22
-9 -36 -20 -25 -19 -25 -19 -66 3 -23 12 -45 26 -49 31 -4 6 -6 -12 -5 -38 2
-39 -2 -51 -18 -60 -10 -6 -39 -30 -64 -53 l-45 -43 1377 0 1377 0 0 1166 -1
1166 -28 -5 c-34 -7 -58 12 -39 31 9 9 7 12 -9 12 -11 0 -23 7 -27 15 -3 8
-11 15 -19 15 -15 0 -97 76 -97 90 0 6 -5 10 -11 10 -6 0 -44 34 -86 75 -41
41 -78 75 -83 75 -5 0 -12 9 -15 20 -3 11 -15 20 -25 20 -11 0 -24 9 -30 21
-6 11 -31 29 -56 39 -24 11 -44 23 -44 28 0 5 -16 17 -35 28 -19 10 -35 24
-35 31 0 7 -8 13 -18 13 -10 0 -29 11 -42 25 -13 14 -29 25 -36 25 -7 0 -21
11 -32 25 -11 14 -25 25 -32 25 -7 0 -30 15 -51 33 -76 63 -104 84 -124 91
-11 3 -25 16 -30 28 -6 12 -24 26 -42 30 -21 6 -36 18 -45 38 -8 20 -20 30
-35 30 -22 0 -44 16 -114 81 -21 20 -52 39 -68 42 -16 4 -43 20 -61 37 -17 16
-35 30 -40 30 -6 0 -10 7 -10 15 0 8 -9 15 -20 15 -11 0 -30 9 -42 20 -13 12
-32 29 -43 39 -11 10 -32 21 -47 25 -16 3 -28 12 -28 20 0 7 -11 19 -25 26
-14 7 -25 19 -25 26 0 7 -4 16 -10 19 -5 3 -7 0 -4 -8 7 -18 -51 -11 -67 9 -6
8 -18 14 -25 14 -9 0 -13 8 -10 23 2 16 10 21 25 20 22 -3 29 13 9 19 -16 6
-2 38 15 38 8 0 20 -13 26 -28 16 -38 64 -55 114 -41 55 15 75 -5 41 -42 -14
-15 -11 -19 32 -48 44 -30 47 -31 65 -15 11 9 19 12 19 7 0 -6 10 -14 23 -18
21 -7 20 -8 -8 -14 l-30 -7 35 -7 c19 -4 45 -9 57 -11 12 -2 36 -14 53 -26 16
-12 30 -16 30 -10 0 6 5 8 10 5 6 -3 7 -17 4 -31 -7 -26 12 -34 33 -13 16 16
35 1 28 -22 -5 -14 -2 -17 8 -13 7 2 20 -2 27 -11 7 -8 24 -15 39 -15 20 0 31
-9 49 -40 17 -31 29 -40 49 -40 25 0 25 -2 21 -50 -5 -47 3 -63 17 -40 5 8 11
8 20 0 10 -8 14 -7 18 2 3 9 9 10 19 3 8 -5 34 -23 57 -38 23 -15 39 -32 36
-37 -3 -6 5 -10 19 -10 17 0 26 -5 26 -16 0 -14 -7 -15 -40 -10 -50 8 -52 -5
-3 -21 29 -9 39 -9 45 0 5 9 12 7 25 -5 16 -17 16 -18 -5 -18 -12 0 -22 -4
-22 -10 0 -14 26 -13 50 3 17 10 22 9 29 -2 5 -7 14 -10 20 -7 6 4 18 -8 28
-28 9 -20 20 -36 25 -36 4 0 8 -7 8 -15 0 -8 9 -15 19 -15 11 0 28 -11 39 -24
l19 -25 21 21 c20 21 21 21 45 2 19 -16 22 -24 15 -43 -4 -13 -6 -26 -3 -29 3
-3 5 0 5 6 0 18 26 3 38 -22 8 -18 7 -27 -6 -39 -15 -15 -14 -18 6 -40 12 -13
22 -29 22 -35 0 -7 5 -12 10 -12 6 0 10 5 10 11 0 6 9 8 20 5 11 -3 29 -9 40
-12 14 -4 20 -1 20 10 0 34 28 14 40 -28 11 -39 40 -72 40 -46 0 6 18 10 40
10 40 0 40 0 40 -38 0 -35 3 -39 37 -51 27 -10 38 -11 41 -2 5 16 22 14 44 -6
17 -16 18 -11 18 129 l0 146 -30 5 c-22 5 -30 12 -30 27 0 13 -10 24 -25 30
-14 5 -30 21 -35 35 -6 15 -14 24 -19 21 -5 -3 -19 8 -32 25 -13 17 -35 35
-47 40 -13 5 -26 18 -29 29 -3 12 -24 28 -49 39 -25 11 -44 27 -44 35 0 9 -3
16 -7 16 -5 0 -42 30 -83 66 -41 36 -87 72 -102 80 -16 8 -28 21 -28 29 0 8
-9 19 -19 25 -11 5 -22 19 -26 29 -3 10 -16 22 -28 25 -23 6 -87 58 -87 71 0
11 -61 65 -72 65 -5 0 -24 15 -41 33 -18 19 -40 36 -49 40 -10 3 -18 13 -18
20 0 8 -21 24 -46 37 -25 13 -50 32 -55 41 -5 10 -26 23 -46 30 -21 6 -49 23
-62 36 -13 13 -36 26 -50 29 -14 3 -37 11 -51 19 -54 29 -237 67 -325 67 -22
0 -42 4 -45 9 -8 12 -174 29 -291 29 -122 0 -296 -17 -323 -33 -12 -6 -25 -10
-31 -8 -12 3 -86 -19 -99 -31 -6 -4 -18 -8 -28 -8 -10 0 -21 -6 -24 -14 -3 -8
-24 -18 -47 -22 -52 -10 -59 -11 -75 -13 -8 0 -12 -9 -10 -18 4 -23 -60 -53
-113 -53 -45 0 -229 -42 -280 -63 -19 -8 -52 -20 -74 -27 -144 -44 -345 -207
-432 -349 -60 -99 -83 -171 -60 -189 7 -5 73 -17 147 -26 388 -46 616 -90 738
-143 29 -13 59 -23 67 -23 8 0 54 -20 102 -44 102 -51 213 -96 333 -136 190
-63 313 -140 458 -287 169 -173 275 -335 377 -578 9 -22 25 -56 35 -75 9 -20
21 -50 25 -68 3 -17 11 -34 16 -37 5 -4 9 -17 9 -29 0 -13 7 -29 15 -36 8 -7
15 -18 15 -25 0 -7 11 -37 24 -66 13 -30 33 -83 45 -119 12 -36 29 -77 37 -92
7 -14 14 -41 14 -60 0 -18 6 -42 13 -53 13 -19 37 -100 37 -124 0 -28 -20 -6
-30 32 -16 61 -31 108 -47 144 -7 17 -13 36 -13 41 0 5 -11 30 -25 53 -14 24
-25 50 -25 56 0 12 -19 57 -95 218 -18 39 -52 113 -76 165 -24 52 -56 116 -71
141 -16 25 -28 51 -28 57 0 11 -64 53 -97 63 -17 6 -23 3 -23 -9 0 -8 -3 -12
-7 -9 -3 4 -12 -2 -19 -12 -8 -10 -29 -22 -48 -25 -28 -5 -35 -12 -40 -39 -8
-41 -56 -156 -76 -181 -8 -11 -25 -30 -38 -43 -12 -13 -22 -30 -22 -38 0 -8
-8 -23 -17 -33 -10 -10 -31 -45 -48 -76 -16 -32 -39 -62 -50 -67 -33 -14 -48
-31 -78 -87 -27 -49 -28 -59 -22 -123 4 -41 3 -74 -3 -82 -12 -15 -23 -93 -26
-179 -2 -47 -8 -73 -19 -86 -10 -11 -17 -35 -17 -58 0 -43 -32 -120 -52 -126
-7 -3 -13 -22 -15 -44 -4 -64 -12 -84 -33 -84 -11 0 -20 5 -20 10 0 6 -7 10
-15 10 -8 0 -15 5 -15 10 0 14 -36 13 -60 -2 -25 -16 -38 -2 -21 24 10 16 10
28 -1 65 -7 25 -19 48 -25 50 -8 3 -11 14 -7 28 3 13 1 26 -5 29 -6 4 -11 15
-11 25 0 9 -9 36 -20 59 -12 24 -18 47 -14 53 3 5 -6 21 -20 34 -14 13 -26 34
-26 45 0 12 -5 31 -12 43 -7 12 -11 33 -9 47 2 17 -5 31 -24 46 -14 11 -36 40
-48 64 -12 24 -31 48 -42 54 -11 6 -40 24 -65 40 -26 18 -65 33 -95 38 -74 10
-108 19 -125 33 -8 7 -26 16 -40 20 -14 4 -48 22 -76 40 -69 44 -110 119 -120
217 -8 87 3 142 66 318 27 74 54 153 59 176 6 22 21 49 33 61 23 20 131 67
178 77 43 9 186 111 206 147 16 28 18 79 4 79 -18 0 -10 33 13 59 34 37 71
101 58 101 -6 0 -11 8 -11 18 0 19 -30 37 -135 79 -163 65 -273 95 -395 108
-87 9 -209 26 -290 40 -109 20 -400 53 -519 60 -25 1 -118 8 -206 14 -88 7
-202 15 -254 19 l-94 7 -13 45 c-10 32 -11 53 -4 74 6 16 10 57 10 92 0 38 5
67 13 73 6 6 26 22 43 36 48 37 111 152 147 266 31 97 33 102 70 116 48 20
104 85 117 137 6 23 15 48 20 56 37 57 64 125 103 265 64 223 70 261 65 421
l-3 139 -38 64 c-40 67 -42 79 -9 62 34 -18 50 6 56 84 11 126 11 128 -24 184
-24 38 -34 68 -37 106 -4 49 -2 53 16 48 31 -8 48 36 31 77 -12 29 -14 30 -29
15 -13 -13 -14 -17 -2 -24 11 -7 11 -12 -2 -31 l-15 -22 -17 36 c-13 26 -15
47 -10 74 4 20 8 48 9 62 2 17 9 25 22 25 10 0 22 4 25 9 13 17 38 -2 32 -23
-7 -28 20 -28 46 0 25 27 31 15 20 -46 -15 -94 -12 -122 21 -155 21 -22 39
-30 64 -30 19 0 38 -4 41 -10 11 -17 20 -11 31 23 7 17 17 46 23 62 6 17 13
43 16 58 7 34 25 31 43 -6 7 -15 20 -27 28 -27 28 0 10 -35 -19 -38 -21 -3
-27 -8 -23 -19 3 -8 6 -28 6 -44 0 -24 4 -29 24 -29 29 0 42 15 49 60 3 19 8
43 12 53 5 13 2 17 -13 17 -14 0 -21 9 -25 30 -8 40 -50 66 -85 54 -15 -5 -31
-19 -37 -32 -5 -12 -15 -22 -22 -22 -7 0 -18 -9 -25 -20 -21 -33 -25 -23 -17
43 6 50 4 74 -13 122 -18 55 -18 60 -3 71 30 22 91 27 124 10 44 -23 68 -20
111 17 31 25 40 39 40 65 0 30 -16 43 -34 25 -12 -12 -56 -14 -56 -3 0 6 -11
16 -25 22 -14 6 -25 17 -25 25 0 13 19 16 77 13 18 -1 42 1 53 5 29 9 25 28
-5 21 -18 -5 -27 -1 -35 14 -6 11 -23 26 -39 35 -27 13 -30 13 -55 -10 -18
-16 -39 -25 -61 -25 -19 0 -37 -4 -40 -10 -3 -5 -16 -10 -29 -10 -14 0 -27 -9
-34 -22 -8 -18 -11 -19 -11 -5 -1 9 -5 17 -11 17 -5 0 -10 7 -10 15 0 18 -1
18 -36 5 -19 -7 -30 -7 -40 1 -10 8 -25 7 -60 -5 -26 -9 -51 -13 -56 -10 -5 4
-27 -2 -49 -11 -22 -10 -42 -15 -46 -11 -12 12 13 41 38 44 13 2 28 8 33 13
13 12 59 12 72 -1 11 -11 44 14 63 47 9 16 12 16 20 3 6 -8 18 -15 28 -16 10
-1 33 -4 51 -8 17 -4 32 -5 32 -3 0 3 -18 25 -40 49 -22 23 -42 52 -46 63 -10
30 -34 54 -49 49 -19 -8 -65 19 -97 55 -26 29 -27 31 -8 41 10 5 34 10 52 10
19 0 43 7 54 16 18 15 17 15 -13 10 -25 -4 -35 -1 -43 13 -5 11 -24 22 -41 26
-25 6 -36 2 -58 -19 -15 -14 -36 -26 -47 -26 -11 0 -25 -5 -32 -12 -8 -8 -15
-8 -26 1 -11 9 -18 6 -34 -16 l-21 -28 -21 23 c-22 23 -19 42 6 42 17 0 17 5
4 30 -6 11 -17 17 -25 14 -10 -4 -15 0 -15 16 0 16 -4 20 -19 15 -23 -7 -51
27 -51 62 0 30 39 32 47 3 4 -13 14 -20 30 -20 14 0 53 -16 87 -35 35 -19 68
-35 74 -35 18 0 14 18 -8 40 l-21 21 26 30 c25 30 33 59 17 59 -5 0 -6 14 -4
31 3 17 0 47 -7 67 -6 21 -19 66 -30 102 -17 57 -33 99 -85 215 -21 46 -34 86
-41 125 -13 72 -23 86 -98 123 -58 29 -87 37 -147 41 -90 5 -94 6 -55 15 16 3
34 16 40 28 l11 21 32 -20 c34 -21 60 -16 29 6 -9 7 -17 18 -17 25 0 15 -87
181 -109 206 -9 11 -29 38 -44 60 -44 67 -197 215 -221 215 -4 0 -22 12 -41
26 l-34 25 -3 -26 c-4 -35 -23 -32 -24 5 0 27 -14 58 -14 32 0 -7 -4 -12 -10
-12 -5 0 -10 9 -10 20 0 15 -11 22 -45 31 -30 8 -45 17 -45 28 0 9 -12 22 -27
29 -45 20 -50 13 -13 -18 26 -22 30 -30 18 -30 -10 0 -18 -4 -18 -10 0 -17
-17 -11 -24 8 -22 57 -78 132 -99 132 -8 0 -25 8 -38 19 -13 10 -40 21 -59 25
-20 3 -43 15 -53 26 -14 16 -21 18 -43 10 -21 -9 -29 -7 -39 7 -13 17 -14 17
-35 -2 -17 -15 -23 -16 -29 -6 -5 7 -12 12 -17 12 -5 -1 -9 2 -10 7 -5 42 -51
59 -61 22 -3 -11 -11 -20 -18 -20 -8 0 -11 8 -8 20 4 15 -2 22 -22 30 -37 14
-37 14 -29 -25 7 -39 6 -39 -30 -25 -19 7 -25 6 -23 -2 4 -22 -30 -20 -36 2
-6 22 -22 27 -30 8 -7 -21 11 -58 28 -58 9 0 23 -7 31 -15 19 -19 35 -20 28
-2 -2 7 4 22 16 32 24 22 24 20 6 -33 -9 -24 -11 -44 -6 -47 14 -8 -9 -53 -30
-58 -24 -6 -34 3 -38 33 -4 37 -19 47 -37 24 -14 -19 -15 -18 -35 6 -25 32
-25 44 2 80 24 33 18 46 -22 52 -19 2 -26 11 -33 41 -12 48 -34 46 -62 -6 -23
-42 -40 -49 -31 -12 4 14 2 25 -4 25 -5 0 -10 4 -10 9 0 5 9 7 20 4 15 -4 19
-2 15 9 -4 10 -15 13 -31 10 -13 -2 -31 1 -39 8 -10 8 -15 9 -15 2 0 -6 7 -15
16 -20 14 -8 14 -10 0 -21 -14 -12 -16 -10 -16 8 0 13 -10 26 -26 33 -22 11
-28 10 -40 -7 -18 -24 -18 -39 1 -55 12 -10 15 -10 15 2 0 7 9 14 19 14 11 0
18 -3 15 -7 -2 -4 -1 -14 2 -23 5 -13 9 -14 20 -5 19 16 27 6 19 -21 -5 -15
-10 -19 -17 -12 -7 7 -18 6 -33 -4 -20 -13 -25 -13 -36 -1 -8 8 -22 12 -33 9
-13 -3 -17 -1 -12 6 4 7 3 12 -3 12 -5 0 -15 -8 -21 -17 -9 -17 -11 -16 -29 5
-11 12 -24 22 -30 22 -15 0 -14 -23 1 -38 17 -17 3 -25 -22 -12 -15 8 -19 17
-14 32 5 17 3 20 -10 15 -20 -8 -56 12 -56 30 0 7 -9 13 -20 13 -12 0 -33 8
-47 18 -15 9 -24 11 -20 5 6 -10 0 -11 -23 -7 -23 5 -34 2 -44 -12 -11 -14
-17 -16 -27 -7 -16 13 -71 14 -63 2 3 -5 9 -9 15 -9 5 0 27 -8 48 -17 43 -19
59 -56 35 -80 -12 -12 -16 -10 -31 15 -14 23 -22 28 -39 22 -22 -8 -47 1 -44
16 1 14 -63 21 -82 10 -9 -6 -20 -7 -23 -4 -8 8 26 48 41 48 15 0 27 31 16 42
-8 8 -73 -11 -84 -26 -3 -5 -17 -10 -29 -11 -18 -1 -26 -10 -34 -39 -8 -27
-13 -34 -22 -25 -6 6 -27 11 -47 12 -22 1 -36 6 -36 14 0 7 7 13 15 13 8 0 15
4 15 9 0 15 -32 22 -46 10 -11 -9 -14 -8 -14 5 0 9 5 16 11 16 8 0 8 5 -1 15
-7 8 -17 15 -22 15 -5 0 -11 -7 -13 -15z m533 -61 c41 -20 40 -25 0 -18 -58
10 -65 14 -48 24 8 6 15 10 16 10 0 0 15 -7 32 -16z m488 -40 c-9 -8 -16 -20
-16 -26 0 -6 -8 -16 -17 -23 -21 -16 -53 1 -53 27 0 25 19 23 28 -3 7 -19 11
-17 37 22 16 24 30 38 33 31 2 -6 -4 -19 -12 -28z m80 -21 c-10 -10 -19 5 -10
18 6 11 8 11 12 0 2 -7 1 -15 -2 -18z m-1136 -17 c0 -29 -19 -63 -38 -68 -24
-7 -47 6 -38 20 4 6 -3 8 -16 4 -21 -5 -22 -4 -9 11 7 9 21 17 30 17 10 0 26
7 37 15 24 18 34 19 34 1z m45 -6 c3 -5 16 -10 29 -10 12 0 31 -7 42 -15 10
-8 15 -15 9 -14 -24 3 -34 -3 -54 -33 l-21 -33 0 49 c0 42 -2 47 -15 36 -13
-10 -15 -9 -15 9 0 22 14 28 25 11z m1291 -15 c-21 -16 -32 -13 -21 4 3 6 14
11 23 11 15 -1 15 -2 -2 -15z m94 5 c0 -5 -2 -10 -4 -10 -3 0 -8 5 -11 10 -3
6 -1 10 4 10 6 0 11 -4 11 -10z m60 -32 c0 -14 -18 -9 -24 8 -11 28 -6 39 9
20 8 -11 15 -23 15 -28z m-90 11 c0 -5 8 -9 18 -7 22 3 52 -18 52 -38 0 -23
-19 -25 -41 -3 -19 19 -23 20 -37 6 -24 -25 0 -45 48 -43 22 1 40 0 40 -3 0
-3 -8 -25 -17 -48 -17 -42 -44 -56 -58 -33 -4 6 -15 8 -26 5 -13 -4 -19 -2
-17 7 2 7 -7 14 -19 16 -25 4 -45 53 -25 60 15 5 15 35 1 49 -19 19 11 26 32
7 18 -16 19 -16 19 3 0 11 3 23 7 26 10 11 23 8 23 -4z m-1535 -9 c-3 -5 -11
-10 -16 -10 -6 0 -7 5 -4 10 3 6 11 10 16 10 6 0 7 -4 4 -10z m815 -30 c0 -5
-4 -10 -9 -10 -6 0 -13 5 -16 10 -3 6 1 10 9 10 9 0 16 -4 16 -10z m-866 -32
c-3 -13 -13 -27 -21 -31 -8 -5 -11 -16 -8 -27 6 -18 -19 -35 -36 -24 -5 3 -12
-3 -16 -13 -10 -26 -24 -33 -46 -21 -17 9 -16 22 1 23 29 3 53 20 58 43 11 56
23 72 49 72 23 0 25 -3 19 -22z m206 -9 c0 -13 -6 -19 -17 -17 -27 4 -34 20
-15 34 21 15 32 9 32 -17z m502 19 c-9 -9 -15 -9 -24 0 -9 9 -7 12 12 12 19 0
21 -3 12 -12z m568 -8 c0 -5 -2 -10 -4 -10 -3 0 -8 5 -11 10 -3 6 -1 10 4 10
6 0 11 -4 11 -10z m-903 -32 c-3 -8 -6 -5 -6 6 -1 11 2 17 5 13 3 -3 4 -12 1
-19z m160 0 c-3 -8 -6 -5 -6 6 -1 11 2 17 5 13 3 -3 4 -12 1 -19z m-487 -4 c0
-8 -5 -12 -10 -9 -6 4 -8 11 -5 16 9 14 15 11 15 -7z m1945 -2 c0 -18 -20 -15
-23 4 -3 10 1 15 10 12 7 -3 13 -10 13 -16z m-1111 -17 c-3 -7 -12 -11 -20 -8
-17 6 -18 20 -1 26 18 6 27 -1 21 -18z m-668 -17 c15 -30 18 -31 24 -13 7 19
7 19 15 -4 9 -30 -8 -49 -30 -31 -8 7 -15 21 -15 31 0 11 -4 19 -10 19 -5 0
-10 7 -10 15 0 23 8 18 26 -17z m614 12 c0 -5 -4 -10 -9 -10 -5 0 -16 -3 -25
-6 -9 -3 -16 -1 -16 4 0 9 16 17 43 21 4 0 7 -3 7 -9z m888 -34 c3 -26 1 -27
-30 -24 -41 4 -51 33 -16 47 33 13 43 8 46 -23z m-1348 15 c0 -5 -7 -12 -16
-15 -14 -5 -15 -4 -4 9 14 17 20 19 20 6z m75 -1 c3 -5 1 -10 -4 -10 -6 0 -11
5 -11 10 0 6 2 10 4 10 3 0 8 -4 11 -10z m65 -41 c0 -4 -11 -6 -25 -5 -18 1
-25 7 -25 22 0 32 13 37 32 12 10 -13 18 -26 18 -29z m419 29 c-1 -36 -14 -64
-23 -49 -5 7 -5 15 -2 18 3 3 1 12 -5 19 -13 16 -4 34 17 34 8 0 14 -9 13 -22z
m71 2 c0 -23 -25 -27 -33 -6 -7 16 1 26 20 26 7 0 13 -9 13 -20z m-910 -9 c0
-6 -4 -13 -10 -16 -5 -3 -10 1 -10 9 0 9 5 16 10 16 6 0 10 -4 10 -9z m100 -7
c0 -2 -7 -4 -15 -4 -8 0 -15 4 -15 10 0 5 7 7 15 4 8 -4 15 -8 15 -10z m525
-1 c14 -32 13 -83 -2 -83 -8 0 -13 11 -13 28 0 15 -3 37 -6 50 -7 26 10 30 21
5z m1095 7 c0 -5 -4 -10 -9 -10 -6 0 -13 5 -16 10 -3 6 1 10 9 10 9 0 16 -4
16 -10z m-1498 -46 c-3 -15 -14 -29 -28 -34 -13 -5 -24 -15 -24 -21 0 -6 7 -9
15 -5 10 4 15 -1 15 -14 0 -11 5 -20 11 -20 8 0 8 -5 -1 -15 -7 -8 -23 -15
-36 -15 -14 0 -33 -6 -44 -12 -14 -9 -22 -10 -31 -1 -8 8 -6 14 10 22 25 14
28 41 5 41 -11 0 -4 13 22 39 33 33 40 36 46 23 5 -14 7 -14 7 4 1 22 20 46
31 39 4 -3 5 -16 2 -31z m1577 19 c11 -9 18 -20 15 -25 -8 -12 -44 10 -44 27
0 19 5 19 29 -2z m-54 -40 c-1 -40 -5 -48 -21 -48 -24 0 -31 38 -13 71 21 40
37 29 34 -23z m304 17 c5 -16 7 -30 3 -30 -12 0 -33 40 -27 50 9 15 12 12 24
-20z m-1759 -17 l0 -38 -15 29 c-13 24 -13 31 -3 38 18 11 18 12 18 -29z
m1400 22 c0 -8 -4 -15 -10 -15 -5 0 -10 7 -10 15 0 8 5 15 10 15 6 0 10 -7 10
-15z m-1730 1 c0 -3 -4 -8 -10 -11 -5 -3 -10 -1 -10 4 0 6 5 11 10 11 6 0 10
-2 10 -4z m479 -3 c0 -5 -4 -17 -9 -28 -8 -18 -9 -17 -9 8 -1 15 4 27 9 27 6
0 10 -3 9 -7z m296 -19 c14 -15 25 -31 25 -35 0 -14 -28 -10 -37 5 -4 7 -18
18 -30 25 -13 6 -23 16 -23 21 0 20 42 9 65 -16z m313 3 c2 -10 -3 -17 -12
-17 -10 0 -16 9 -16 21 0 24 23 21 28 -4z m-958 3 c0 -5 -5 -10 -11 -10 -5 0
-7 5 -4 10 3 6 8 10 11 10 2 0 4 -4 4 -10z m316 -27 c-11 -11 -19 6 -11 24 8
17 8 17 12 0 3 -10 2 -21 -1 -24z m1537 8 c6 -6 21 -11 34 -11 25 0 28 -7 14
-29 -8 -12 -12 -12 -24 -2 -12 9 -17 9 -23 0 -4 -7 1 -18 11 -26 11 -7 15 -13
11 -13 -5 0 -4 -6 2 -12 7 -9 4 -21 -13 -42 -27 -33 -44 -19 -20 17 15 23 14
25 -5 30 -18 5 -20 11 -16 51 4 44 -8 63 -20 31 -4 -8 -12 -15 -20 -15 -18 0
-18 -15 2 -45 23 -36 13 -51 -16 -23 -14 13 -37 30 -52 37 -34 18 -36 31 -4
31 13 0 27 7 30 16 3 8 9 13 14 10 4 -2 14 -1 21 4 18 10 59 6 74 -9z m-2123
0 c0 -12 -20 -25 -27 -18 -7 7 6 27 18 27 5 0 9 -4 9 -9z m80 -1 c0 -5 -7 -10
-15 -10 -8 0 -15 5 -15 10 0 6 7 10 15 10 8 0 15 -4 15 -10z m350 -10 c0 -11
-7 -20 -15 -20 -27 0 -18 30 13 39 1 1 2 -8 2 -19z m-423 -42 c-3 -8 -6 -5 -6
6 -1 11 2 17 5 13 3 -3 4 -12 1 -19z m2225 15 c-9 -4 -8 -12 5 -34 10 -16 21
-29 26 -29 13 0 57 -43 57 -56 0 -7 7 -14 15 -18 23 -8 18 -23 -10 -28 -16 -4
-25 -1 -25 8 0 18 -57 57 -71 48 -6 -3 -16 0 -21 7 -7 11 -11 11 -15 2 -6 -17
-23 -17 -23 0 0 7 9 18 20 25 11 6 19 20 18 30 -3 37 3 52 20 51 10 0 12 -3 4
-6z m-2042 -38 c0 -13 5 -25 12 -27 7 -3 9 -12 4 -24 -7 -18 -8 -18 -20 -2 -7
10 -16 15 -19 11 -4 -3 -9 2 -13 11 -5 14 -10 12 -30 -11 -13 -16 -22 -33 -20
-39 3 -7 -7 -6 -26 3 -25 13 -28 18 -16 29 7 7 24 15 38 17 19 3 25 10 25 28
1 18 6 24 23 23 12 0 22 3 22 8 0 5 5 6 10 3 6 -3 10 -17 10 -30z m45 24 c4
-6 5 -12 2 -15 -7 -7 -37 7 -37 17 0 13 27 11 35 -2z m1515 1 c0 -5 -2 -10 -4
-10 -3 0 -8 5 -11 10 -3 6 -1 10 4 10 6 0 11 -4 11 -10z m-1820 -44 c0 -8 -7
-16 -15 -20 -15 -5 -21 14 -8 27 11 12 23 8 23 -7z m530 4 c0 -5 -2 -10 -4
-10 -3 0 -8 5 -11 10 -3 6 -1 10 4 10 6 0 11 -4 11 -10z m260 -15 c-7 -9 -15
-13 -17 -11 -7 7 7 26 19 26 6 0 6 -6 -2 -15z m1659 -22 c-6 -16 -6 -30 0 -36
5 -5 12 -1 16 12 9 29 25 26 25 -4 0 -14 -4 -25 -10 -25 -5 0 -10 -7 -10 -15
0 -8 6 -15 14 -15 21 0 29 -32 11 -49 -13 -14 -15 -13 -15 6 0 12 -4 25 -10
28 -5 3 -10 15 -10 26 0 11 -7 22 -15 25 -15 6 -21 64 -9 77 14 14 23 -5 13
-30z m-2489 -2 c0 -6 -4 -13 -10 -16 -5 -3 -10 1 -10 9 0 9 5 16 10 16 6 0 10
-4 10 -9z m2165 -41 c3 -5 1 -10 -4 -10 -6 0 -11 5 -11 10 0 6 2 10 4 10 3 0
8 -4 11 -10z m-1885 -9 c0 -6 -4 -13 -10 -16 -5 -3 -10 1 -10 9 0 9 5 16 10
16 6 0 10 -4 10 -9z m100 -41 c0 -5 -9 -10 -20 -10 -11 0 -20 5 -20 10 0 6 9
10 20 10 11 0 20 -4 20 -10z m410 3 c0 -5 -5 -15 -10 -23 -8 -12 -10 -11 -10
8 0 12 5 22 10 22 6 0 10 -3 10 -7z m1524 -30 c10 -62 8 -77 -7 -64 -8 6 -17
7 -22 3 -4 -4 -3 2 3 14 12 22 0 44 -24 44 -6 0 -17 6 -23 14 -10 11 -8 15 6
19 50 13 60 8 67 -30z m-2169 7 c9 -15 -3 -30 -20 -24 -7 3 -11 12 -8 20 6 16
19 18 28 4z m425 1 c0 -12 -20 -25 -27 -18 -7 7 6 27 18 27 5 0 9 -4 9 -9z
m490 5 c0 -3 -4 -8 -10 -11 -5 -3 -10 -1 -10 4 0 6 5 11 10 11 6 0 10 -2 10
-4z m1280 -11 c0 -8 -4 -15 -10 -15 -5 0 -7 7 -4 15 4 8 8 15 10 15 2 0 4 -7
4 -15z m127 9 c-3 -3 -12 -4 -19 -1 -8 3 -5 6 6 6 11 1 17 -2 13 -5z m-2097
-29 c0 -30 -15 -33 -30 -6 -14 27 -13 31 10 31 15 0 20 -7 20 -25z m337 -17
c-3 -8 -6 -5 -6 6 -1 11 2 17 5 13 3 -3 4 -12 1 -19z m1692 -47 c0 -10 -2 -12
-6 -3 -2 6 -13 12 -24 12 -18 0 -26 20 -12 33 9 10 43 -23 42 -42z m-1632 -28
c-4 -17 -4 -17 -12 0 -4 9 -4 25 0 35 8 16 8 16 12 0 3 -10 3 -26 0 -35z
m1570 -5 c-3 -7 -5 -2 -5 12 0 14 2 19 5 13 2 -7 2 -19 0 -25z m-2546 9 c-1
-12 -15 -9 -19 4 -3 6 1 10 8 8 6 -3 11 -8 11 -12z m1929 4 c0 -5 -7 -14 -15
-21 -12 -10 -15 -10 -15 2 0 8 3 18 7 21 9 10 23 9 23 -2z m-1860 -11 c0 -5
-2 -10 -4 -10 -3 0 -8 5 -11 10 -3 6 -1 10 4 10 6 0 11 -4 11 -10z m1225 0 c3
-5 1 -10 -4 -10 -6 0 -11 5 -11 10 0 6 2 10 4 10 3 0 8 -4 11 -10z m1295 0 c0
-5 -5 -10 -11 -10 -5 0 -7 5 -4 10 3 6 8 10 11 10 2 0 4 -4 4 -10z m-1156 -51
c-4 -6 -11 -6 -20 2 -21 17 -17 31 6 19 11 -6 18 -15 14 -21z m1115 -15 c-14
-18 -24 -11 -15 11 3 9 11 13 16 10 8 -5 7 -11 -1 -21z m-1662 -6 c-3 -8 -6
-5 -6 6 -1 11 2 17 5 13 3 -3 4 -12 1 -19z m2088 12 c3 -5 1 -10 -4 -10 -6 0
-11 5 -11 10 0 6 2 10 4 10 3 0 8 -4 11 -10z m-1585 -10 c0 -5 -4 -10 -10 -10
-5 0 -10 5 -10 10 0 6 5 10 10 10 6 0 10 -4 10 -10z m-1233 -15 c7 -20 -2 -29
-21 -22 -9 4 -13 13 -10 22 8 19 23 19 31 0z m131 -31 c-10 -10 -28 6 -28 24
0 15 1 15 17 -1 9 -9 14 -19 11 -23z m-215 14 c6 -17 -12 -50 -22 -44 -10 7
-2 56 9 56 5 0 10 -6 13 -12z m734 -55 c-10 -9 -13 -3 -20 37 l-6 35 16 -32
c9 -18 13 -36 10 -40z m-150 5 c-3 -7 -5 -2 -5 12 0 14 2 19 5 13 2 -7 2 -19
0 -25z m643 -31 c0 -8 -7 -21 -16 -28 -15 -12 -16 -11 -10 8 4 12 3 24 -2 27
-5 3 -9 17 -9 31 l0 25 18 -24 c11 -13 19 -31 19 -39z m-946 31 c-4 -13 -12
-31 -18 -40 -10 -14 -12 -10 -13 23 -2 33 1 39 18 39 17 0 19 -4 13 -22z m496
12 c0 -5 -4 -10 -10 -10 -5 0 -10 5 -10 10 0 6 5 10 10 10 6 0 10 -4 10 -10z
m-80 -20 c0 -4 -6 -10 -14 -13 -10 -4 -12 0 -9 14 5 18 23 18 23 -1z m-800 -5
c0 -8 -7 -15 -15 -15 -16 0 -20 12 -8 23 11 12 23 8 23 -8z m703 -24 c3 -11
-1 -22 -8 -25 -8 -3 -12 4 -12 20 0 29 13 32 20 5z m-417 -18 c-7 -7 -26 7
-26 19 0 6 6 6 15 -2 9 -7 13 -15 11 -17z m556 5 c-7 -7 -12 -8 -12 -2 0 14
12 26 19 19 2 -3 -1 -11 -7 -17z m-349 -59 c-17 -17 -37 -1 -22 17 8 10 15 12
23 4 7 -7 7 -13 -1 -21z m797 27 c0 -3 -4 -8 -10 -11 -5 -3 -10 -1 -10 4 0 6
5 11 10 11 6 0 10 -2 10 -4z m-1219 -27 c9 -18 6 -25 -23 -50 -41 -35 -46 -36
-40 -3 3 15 13 29 23 31 11 3 19 14 19 24 0 25 7 24 21 -2z m217 -15 c-4 -3
-12 5 -18 18 -12 22 -12 22 6 6 10 -10 15 -20 12 -24z m824 11 c-4 -13 -10
-25 -14 -25 -24 0 -28 1 -28 10 0 6 7 10 15 10 8 0 15 7 15 15 0 8 4 15 9 15
5 0 6 -11 3 -25z m-772 -1 c0 -9 -5 -14 -12 -12 -18 6 -21 28 -4 28 9 0 16 -7
16 -16z m80 -15 c-7 -11 -14 -18 -17 -15 -3 3 0 12 7 21 18 21 23 19 10 -6z
m230 -23 c0 -2 -9 -6 -20 -9 -11 -3 -20 -1 -20 4 0 5 9 9 20 9 11 0 20 -2 20
-4z m67 -28 c-3 -8 -6 -5 -6 6 -1 11 2 17 5 13 3 -3 4 -12 1 -19z m270 16 c-3
-3 -12 -4 -19 -1 -8 3 -5 6 6 6 11 1 17 -2 13 -5z m343 -4 c0 -5 -2 -10 -4
-10 -3 0 -8 5 -11 10 -3 6 -1 10 4 10 6 0 11 -4 11 -10z m-1055 -68 c-8 -8
-24 9 -39 41 l-16 32 30 -34 c16 -19 28 -37 25 -39z m535 58 c0 -5 -5 -10 -11
-10 -5 0 -7 5 -4 10 3 6 8 10 11 10 2 0 4 -4 4 -10z m-300 -4 c0 -2 -7 -9 -15
-16 -12 -10 -15 -10 -15 4 0 9 7 16 15 16 8 0 15 -2 15 -4z m267 -2 c-3 -3
-12 -4 -19 -1 -8 3 -5 6 6 6 11 1 17 -2 13 -5z m333 -4 c0 -5 -4 -10 -10 -10
-5 0 -10 5 -10 10 0 6 5 10 10 10 6 0 10 -4 10 -10z m-902 -49 c-15 -25 -17
-25 -42 -6 -22 16 -14 30 19 37 29 6 39 -6 23 -31z m202 29 c0 -5 -5 -10 -11
-10 -5 0 -7 5 -4 10 3 6 8 10 11 10 2 0 4 -4 4 -10z m935 1 c3 -5 1 -12 -5
-16 -5 -3 -10 1 -10 9 0 18 6 21 15 7z m119 -42 c-25 -27 -29 -16 -7 21 13 23
19 27 21 15 2 -9 -4 -25 -14 -36z m-1349 31 c-2 -4 0 -22 5 -40 7 -24 6 -38
-4 -52 -9 -12 -16 -16 -21 -9 -3 6 -16 11 -28 11 -22 1 -22 1 2 14 15 8 20 16
12 20 -6 4 -11 14 -11 23 0 9 -8 21 -17 28 -14 10 -10 12 25 12 23 0 39 -3 37
-7z m210 -10 c3 -5 2 -10 -4 -10 -5 0 -13 5 -16 10 -3 6 -2 10 4 10 5 0 13 -4
16 -10z m1065 -9 c0 -13 -29 -35 -37 -28 -7 8 15 37 28 37 5 0 9 -4 9 -9z
m-1380 -5 c0 -3 -4 -8 -10 -11 -5 -3 -10 -1 -10 4 0 6 5 11 10 11 6 0 10 -2
10 -4z m408 -20 c3 -12 -1 -17 -10 -14 -7 3 -15 13 -16 22 -3 12 1 17 10 14 7
-3 15 -13 16 -22z m39 -8 c-3 -8 -6 -5 -6 6 -1 11 2 17 5 13 3 -3 4 -12 1 -19z
m313 12 c0 -5 -4 -10 -10 -10 -5 0 -10 5 -10 10 0 6 5 10 10 10 6 0 10 -4 10
-10z m390 3 c-1 -10 -26 -43 -33 -43 -3 0 0 11 6 25 11 23 27 34 27 18z
m-1200 -13 c0 -5 -2 -10 -4 -10 -3 0 -8 5 -11 10 -3 6 -1 10 4 10 6 0 11 -4
11 -10z m215 -30 c-4 -6 -11 -5 -20 3 -9 9 -10 16 -2 25 9 11 12 10 19 -2 5
-9 6 -21 3 -26z m83 19 c7 -12 10 -24 6 -27 -4 -4 -9 -1 -11 6 -3 6 -11 12
-19 12 -8 0 -14 7 -14 15 0 22 23 18 38 -6z m542 1 c0 -5 -2 -10 -4 -10 -3 0
-8 5 -11 10 -3 6 -1 10 4 10 6 0 11 -4 11 -10z m595 0 c3 -5 1 -10 -4 -10 -6
0 -11 5 -11 10 0 6 2 10 4 10 3 0 8 -4 11 -10z m212 -16 c-2 -2 -12 -1 -22 3
-18 6 -18 7 1 13 17 7 33 -5 21 -16z m137 1 c-4 -8 -8 -15 -10 -15 -2 0 -4 7
-4 15 0 8 4 15 10 15 5 0 7 -7 4 -15z m-1921 -10 c1 -5 -6 -11 -15 -13 -11 -2
-18 3 -18 13 0 17 30 18 33 0z m1286 -15 c3 -25 3 -25 -18 -6 -26 23 -27 39
-3 34 9 -2 19 -14 21 -28z m-858 -9 c7 -18 6 -22 -9 -19 -9 2 -19 14 -20 27
-5 30 18 24 29 -8z m274 11 c22 -17 22 -19 5 -40 -18 -22 -60 -31 -60 -12 0 6
9 10 20 10 21 0 27 15 10 25 -11 7 -14 35 -4 35 3 0 16 -8 29 -18z m455 10 c0
-13 -12 -22 -22 -16 -10 6 -1 24 13 24 5 0 9 -4 9 -8z m444 -7 c-4 -8 -13 -15
-21 -15 -13 0 -13 3 -3 15 7 8 16 15 21 15 5 0 6 -7 3 -15z m286 5 c0 -5 -4
-10 -10 -10 -5 0 -10 5 -10 10 0 6 5 10 10 10 6 0 10 -4 10 -10z m-790 -10 c0
-5 -7 -10 -15 -10 -8 0 -15 5 -15 10 0 6 7 10 15 10 8 0 15 -4 15 -10z m112
-2 c45 -26 65 -55 29 -43 -10 3 -24 -1 -31 -10 -17 -20 -34 -19 -26 1 4 9 1
23 -5 30 -6 7 -8 18 -4 24 8 13 11 13 37 -2z m128 -8 c0 -5 -8 -10 -17 -10
-15 0 -16 2 -3 10 19 12 20 12 20 0z m-1206 -13 c12 -9 17 -23 14 -42 -4 -33
-28 -47 -28 -16 0 27 -13 27 -34 -1 -16 -23 -16 -23 -10 10 5 28 3 32 -16 32
-12 0 -18 4 -15 10 4 6 10 8 14 6 4 -3 13 -1 21 5 20 12 33 11 54 -4z m881
-31 c-16 -25 -18 -25 -40 -8 -24 18 -24 35 0 26 8 -3 22 2 32 11 23 24 29 3 8
-29z m705 24 c0 -5 -2 -10 -4 -10 -3 0 -8 5 -11 10 -3 6 -1 10 4 10 6 0 11 -4
11 -10z m-1530 -43 c0 -5 -4 -5 -10 -2 -5 3 -10 14 -10 23 0 15 2 15 10 2 5
-8 10 -19 10 -23z m930 12 c0 -5 -5 -9 -11 -9 -7 0 -17 -7 -24 -17 -8 -11 -14
-13 -19 -5 -4 7 -2 12 3 12 6 0 11 6 11 14 0 15 20 26 33 19 4 -2 7 -8 7 -14z
m520 -7 c0 -5 -6 -17 -14 -28 -19 -25 -31 -12 -14 15 13 21 28 28 28 13z
m-300 -18 c0 -8 -4 -12 -10 -9 -5 3 -10 10 -10 16 0 5 5 9 10 9 6 0 10 -7 10
-16z m-845 -4 c3 -5 2 -10 -4 -10 -5 0 -13 5 -16 10 -3 6 -2 10 4 10 5 0 13
-4 16 -10z m170 -55 c-5 -25 -4 -28 7 -15 29 32 94 56 68 25 -10 -13 -10 -19
4 -34 17 -18 17 -20 -4 -31 -12 -6 -24 -9 -28 -6 -3 3 0 6 6 6 7 0 12 6 12 14
0 17 -47 18 -54 0 -4 -10 -11 -10 -36 2 -21 11 -28 20 -22 27 6 7 13 27 17 46
7 33 8 34 22 16 8 -12 11 -31 8 -50z m1055 44 c0 -5 -4 -9 -10 -9 -5 0 -10 7
-10 16 0 8 5 12 10 9 6 -3 10 -10 10 -16z m-200 2 c0 -6 -4 -13 -10 -16 -5 -3
-10 1 -10 9 0 9 5 16 10 16 6 0 10 -4 10 -9z m50 5 c0 -3 -4 -8 -10 -11 -5 -3
-10 -1 -10 4 0 6 5 11 10 11 6 0 10 -2 10 -4z m-162 -20 c-7 -8 -15 -12 -17
-11 -5 6 10 25 20 25 5 0 4 -6 -3 -14z m-293 -6 c3 -5 1 -10 -4 -10 -6 0 -11
5 -11 10 0 6 2 10 4 10 3 0 8 -4 11 -10z m-98 -25 c14 -14 12 -20 -12 -55 -31
-45 -40 -49 -48 -19 -3 12 -3 18 0 15 10 -9 45 44 39 59 -7 19 1 19 21 0z
m673 5 c0 -5 -5 -10 -11 -10 -5 0 -7 5 -4 10 3 6 8 10 11 10 2 0 4 -4 4 -10z
m-1640 -22 c0 -19 -6 -23 -30 -24 -36 -1 -38 8 -7 29 30 22 37 21 37 -5z
m1183 -12 c-4 -6 1 -5 10 3 10 8 21 10 25 6 4 -4 1 -10 -5 -12 -7 -3 -13 -11
-13 -19 0 -8 -7 -14 -15 -14 -8 0 -15 -4 -15 -10 0 -17 -34 -50 -52 -50 -9 0
-20 -4 -23 -10 -3 -5 -11 -10 -16 -10 -14 0 0 43 17 53 8 4 14 15 14 24 0 11
7 14 28 9 15 -3 21 -3 15 0 -15 7 -17 34 -3 34 6 0 10 7 10 16 0 13 3 14 15 4
8 -7 12 -17 8 -24z m-1265 12 c-3 -7 -17 -15 -33 -16 -25 -3 -27 -2 -16 12 16
19 55 22 49 4z m148 1 c8 -13 -32 -56 -43 -45 -4 4 -1 11 6 16 8 4 11 15 8 24
-7 18 18 23 29 5z m164 2 c0 -6 -5 -13 -11 -17 -6 -3 -9 -17 -6 -30 5 -28 -9
-31 -36 -6 -15 13 -14 7 7 -25 29 -47 31 -53 16 -53 -5 0 -10 7 -10 15 0 8 -9
19 -21 25 -30 16 -61 -13 -53 -49 6 -25 28 -58 24 -36 -2 6 -2 23 -1 38 1 21
5 28 19 25 13 -3 17 -13 17 -46 0 -23 -4 -42 -8 -42 -5 0 -5 -9 -2 -20 7 -22
2 -24 -24 -10 -16 8 -19 4 -25 -28 -4 -28 -2 -40 11 -49 12 -9 19 -10 24 -2 3
6 11 -2 17 -20 7 -19 7 -31 1 -31 -5 0 -9 6 -9 14 0 8 -7 16 -15 20 -8 3 -15
4 -15 2 0 -3 -3 -13 -7 -23 -3 -10 -3 -15 2 -11 11 11 35 -11 35 -32 0 -10 -6
-23 -14 -29 -11 -10 -16 -8 -24 6 -6 10 -14 14 -18 10 -5 -4 -3 -17 4 -27 10
-16 9 -18 -3 -14 -20 8 -19 -13 1 -33 8 -9 13 -22 10 -30 -4 -8 4 -17 20 -23
20 -8 24 -15 19 -31 -5 -14 0 -28 14 -43 21 -22 20 -56 -1 -56 -6 0 -8 7 -4
15 3 8 -3 19 -14 25 -15 8 -20 6 -25 -10 -5 -16 -10 -18 -25 -10 -23 12 -16
40 10 40 23 0 31 12 20 29 -5 9 -17 11 -35 7 -22 -6 -26 -4 -22 8 4 9 2 18 -2
21 -5 3 -7 14 -4 25 3 11 1 20 -3 20 -5 0 -7 28 -6 61 3 44 0 64 -9 70 -11 7
-10 11 4 21 16 12 26 85 28 212 0 28 51 105 69 106 8 0 26 7 40 14 31 17 40
19 40 7z m1085 0 c3 -5 1 -12 -5 -16 -5 -3 -10 1 -10 9 0 18 6 21 15 7z m-265
-21 c0 -6 -10 -21 -21 -33 l-21 -22 11 23 c6 12 9 22 6 22 -4 0 -3 5 0 10 8
13 25 13 25 0z m414 -26 c-1 -16 -5 -37 -9 -46 -5 -13 -3 -18 8 -18 18 0 30
-27 16 -36 -14 -8 -42 4 -34 15 3 5 2 12 -3 15 -4 2 -7 26 -6 53 3 59 1 56 17
50 6 -2 12 -17 11 -33z m-879 -22 c-7 -7 -45 29 -45 41 0 6 11 0 25 -13 14
-13 23 -26 20 -28z m819 39 c7 -10 -43 -46 -51 -37 -7 7 26 46 38 46 4 0 10
-4 13 -9z m179 -22 c12 -8 -1 -31 -14 -24 -5 4 -9 18 -8 33 0 16 3 21 6 12 3
-8 10 -18 16 -21z m-500 -4 c-10 -13 -21 -25 -25 -25 -15 0 -8 29 10 39 29 17
34 12 15 -14z m-1135 3 c-6 -18 -28 -21 -28 -4 0 9 7 16 16 16 9 0 14 -5 12
-12z m1282 0 c-1 -16 -50 -53 -50 -38 0 5 4 10 9 10 5 0 13 9 16 20 7 22 25
27 25 8z m310 -3 c-12 -15 -30 -12 -30 6 0 5 10 9 21 9 18 0 19 -2 9 -15z m80
-6 c0 -5 -4 -9 -10 -9 -5 0 -10 7 -10 16 0 8 5 12 10 9 6 -3 10 -10 10 -16z
m-990 1 c0 -5 -4 -10 -9 -10 -6 0 -13 5 -16 10 -3 6 1 10 9 10 9 0 16 -4 16
-10z m-635 -29 c-3 -6 -11 -11 -17 -11 -6 0 -6 6 2 15 14 17 26 13 15 -4z
m-65 -6 c0 -8 -4 -15 -9 -15 -13 0 -22 16 -14 24 11 11 23 6 23 -9z m490 11
c0 -11 -19 -15 -25 -6 -3 5 1 10 9 10 9 0 16 -2 16 -4z m590 -3 c0 -14 -19
-38 -25 -32 -8 8 5 39 16 39 5 0 9 -3 9 -7z m505 -3 c-3 -5 -10 -10 -16 -10
-5 0 -9 5 -9 10 0 6 7 10 16 10 8 0 12 -4 9 -10z m-568 -24 c-2 -6 -15 -10
-27 -8 -28 3 -34 7 -26 20 8 13 58 2 53 -12z m460 -6 c8 0 13 -5 11 -12 -6
-18 -21 -19 -43 -2 -17 13 -18 16 -5 24 9 6 16 6 18 0 2 -6 10 -10 19 -10z
m209 0 c8 0 14 -7 14 -15 0 -8 -4 -15 -10 -15 -10 0 -31 33 -29 47 0 4 3 2 6
-4 2 -7 11 -13 19 -13z m-987 -16 c-9 -11 -8 -14 4 -14 8 0 20 -7 27 -15 9
-11 8 -19 -5 -37 l-16 -23 7 29 c6 24 4 28 -9 23 -9 -3 -19 -2 -23 4 -9 15 5
61 17 54 7 -5 6 -12 -2 -21z m596 6 c-10 -11 -22 -20 -27 -20 -10 0 24 38 36
39 5 1 1 -8 -9 -19z m-375 0 c0 -5 -2 -10 -4 -10 -3 0 -8 5 -11 10 -3 6 -1 10
4 10 6 0 11 -4 11 -10z m180 0 c0 -10 -36 -50 -45 -50 -3 0 -1 9 5 20 6 11 8
20 5 20 -4 0 -3 5 0 10 3 6 13 10 21 10 8 0 14 -4 14 -10z m2230 6 c0 -3 -4
-8 -10 -11 -5 -3 -10 -1 -10 4 0 6 5 11 10 11 6 0 10 -2 10 -4z m-2153 -28
c-3 -8 -6 -5 -6 6 -1 11 2 17 5 13 3 -3 4 -12 1 -19z m-387 -44 c0 -2 -7 -4
-15 -4 -10 0 -15 10 -15 33 l0 32 15 -29 c8 -15 15 -30 15 -32z m230 34 c0 -7
-7 -26 -15 -42 -9 -17 -12 -38 -8 -54 l6 -27 -26 29 c-19 20 -32 26 -44 21
-16 -6 -15 -8 5 -16 24 -9 26 -29 4 -37 -7 -2 -16 8 -22 23 -13 35 2 65 30 58
20 -5 29 12 9 19 -7 2 -5 9 5 17 11 9 16 10 16 2 0 -6 5 -11 10 -11 6 0 10 7
10 15 0 8 5 15 10 15 6 0 10 -6 10 -12z m181 -31 c-17 -17 -24 -1 -9 22 11 18
14 19 16 5 2 -9 -1 -21 -7 -27z m-911 18 c0 -8 -7 -15 -15 -15 -8 0 -15 7 -15
15 0 8 7 15 15 15 8 0 15 -7 15 -15z m-190 -5 c0 -5 -6 -10 -14 -10 -8 0 -18
-9 -21 -20 -3 -11 -15 -25 -25 -30 -19 -10 -50 -4 -50 10 0 13 59 52 68 46 4
-2 14 -1 22 5 19 11 20 11 20 -1z m450 0 c0 -5 -4 -10 -9 -10 -6 0 -13 5 -16
10 -3 6 1 10 9 10 9 0 16 -4 16 -10z m620 0 c0 -5 -7 -7 -15 -4 -8 4 -15 8
-15 10 0 2 7 4 15 4 8 0 15 -4 15 -10z m-240 -4 c0 -3 -4 -8 -10 -11 -5 -3
-10 -1 -10 4 0 6 5 11 10 11 6 0 10 -2 10 -4z m-428 -35 c-22 -23 -27 -19 -11
7 7 12 16 19 21 16 4 -3 0 -13 -10 -23z m127 12 c17 -2 31 -22 31 -43 -1 -12
-3 -12 -14 3 -14 18 -46 24 -46 8 0 -5 -9 -11 -19 -14 -13 -3 -22 -17 -27 -42
-5 -26 -10 -33 -17 -26 -6 6 -19 11 -29 11 -28 0 -21 18 8 22 20 2 33 15 51
50 16 30 29 45 37 41 6 -4 17 -8 25 -10z m61 7 c0 -5 -2 -10 -4 -10 -3 0 -8 5
-11 10 -3 6 -1 10 4 10 6 0 11 -4 11 -10z m349 -12 c-9 -16 -14 -19 -17 -9 -2
7 2 17 9 22 20 13 21 11 8 -13z m401 12 c0 -5 -4 -10 -10 -10 -5 0 -10 5 -10
10 0 6 5 10 10 10 6 0 10 -4 10 -10z m-296 -9 c3 -5 -1 -14 -9 -21 -13 -10
-15 -9 -15 9 0 21 14 28 24 12z m-844 -19 c0 -10 -38 -42 -50 -42 -6 0 -10 5
-10 10 0 6 6 10 14 10 8 0 16 7 20 15 6 15 26 21 26 7z m479 -6 c10 -12 8 -13
-8 -9 -12 3 -21 9 -21 14 0 14 16 11 29 -5z m-69 -15 c0 -11 -6 -22 -12 -24
-10 -4 -10 -7 0 -15 7 -5 10 -16 6 -25 -3 -10 -1 -17 5 -17 6 0 11 -4 11 -9 0
-5 -15 -8 -34 -7 -29 3 -36 -1 -40 -20 -7 -26 -25 -31 -44 -12 -22 22 -14 39
15 32 23 -6 25 -5 20 15 -4 18 -2 20 21 16 19 -3 22 -1 14 7 -14 14 -16 42 -3
34 5 -3 12 5 15 19 7 29 26 34 26 6z m800 9 c0 -5 -4 -10 -10 -10 -5 0 -10 5
-10 10 0 6 5 10 10 10 6 0 10 -4 10 -10z m-1612 -58 l-4 -27 -12 29 c-15 35
-7 72 9 43 6 -10 9 -30 7 -45z m1307 48 c-3 -5 -11 -10 -16 -10 -6 0 -7 5 -4
10 3 6 11 10 16 10 6 0 7 -4 4 -10z m-75 -44 c0 -3 -4 -8 -10 -11 -5 -3 -10
-1 -10 4 0 6 5 11 10 11 6 0 10 -2 10 -4z m-162 -27 c-2 -6 -8 -10 -13 -10 -5
0 -11 4 -13 10 -2 6 4 11 13 11 9 0 15 -5 13 -11z m-543 -9 c3 -5 -1 -10 -9
-10 -9 0 -16 5 -16 10 0 6 4 10 9 10 6 0 13 -4 16 -10z m72 -32 c-13 -20 -27
-14 -27 11 0 25 10 32 25 18 9 -8 9 -16 2 -29z m-447 22 c0 -5 -7 -10 -15 -10
-8 0 -15 5 -15 10 0 6 7 10 15 10 8 0 15 -4 15 -10z m1130 -10 c-6 -11 -13
-20 -16 -20 -2 0 0 9 6 20 6 11 13 20 16 20 2 0 0 -9 -6 -20z m1580 10 c0 -5
-2 -10 -4 -10 -2 0 -11 -3 -19 -6 -8 -3 -17 2 -20 10 -5 12 0 16 18 16 14 0
25 -4 25 -10z m-2460 -10 c0 -5 -5 -10 -11 -10 -5 0 -7 5 -4 10 3 6 8 10 11
10 2 0 4 -4 4 -10z m937 4 c-3 -3 -12 -4 -19 -1 -8 3 -5 6 6 6 11 1 17 -2 13
-5z m1370 -25 c-2 -10 -9 -25 -15 -31 -9 -9 -12 -7 -12 9 0 30 11 54 21 47 5
-3 7 -14 6 -25z m861 20 c-2 -6 -8 -10 -13 -10 -5 0 -11 4 -13 10 -2 6 4 11
13 11 9 0 15 -5 13 -11z m-2396 -21 c-6 -6 -15 -8 -19 -4 -4 4 -1 11 7 16 19
12 27 3 12 -12z m873 12 c3 -5 -1 -10 -10 -10 -9 0 -13 5 -10 10 3 6 8 10 10
10 2 0 7 -4 10 -10z m425 6 c0 -3 -4 -8 -10 -11 -5 -3 -10 -1 -10 4 0 6 5 11
10 11 6 0 10 -2 10 -4z m280 -11 c0 -8 -7 -15 -15 -15 -26 0 -18 20 13 29 1 1
2 -6 2 -14z m-1630 -10 c0 -8 -4 -15 -10 -15 -5 0 -10 7 -10 15 0 8 5 15 10
15 6 0 10 -7 10 -15z m2005 5 c3 -5 -1 -10 -9 -10 -9 0 -16 -8 -16 -17 0 -13
-3 -14 -12 -5 -8 8 -8 15 2 27 14 17 26 19 35 5z m-1915 -10 c0 -5 -4 -10 -10
-10 -5 0 -10 5 -10 10 0 6 5 10 10 10 6 0 10 -4 10 -10z m-395 -11 c10 -14 1
-21 -19 -13 -9 3 -13 10 -10 15 7 12 21 11 29 -2z m1988 -12 c4 3 7 2 7 -4 0
-17 -31 -25 -46 -12 -11 9 -12 15 -2 26 10 13 13 13 23 -1 7 -9 15 -13 18 -9z
m-2739 -14 c-17 -69 -40 -82 -46 -27 -3 25 1 38 11 44 30 18 42 12 35 -17z
m1086 17 c0 -5 -4 -10 -10 -10 -5 0 -10 5 -10 10 0 6 5 10 10 10 6 0 10 -4 10
-10z m1041 -17 c-12 -20 -14 -14 -5 12 4 9 9 14 11 11 3 -2 0 -13 -6 -23z
m696 12 c3 -9 3 -19 -1 -22 -8 -9 -37 18 -30 28 8 14 24 11 31 -6z m34 2 c-1
-12 -15 -9 -19 4 -3 6 1 10 8 8 6 -3 11 -8 11 -12z m82 -2 c-3 -9 -8 -14 -10
-11 -3 3 -2 9 2 15 9 16 15 13 8 -4z m-2603 -16 c0 -6 -4 -7 -10 -4 -5 3 -10
11 -10 16 0 6 5 7 10 4 6 -3 10 -11 10 -16z m2230 11 c0 -5 -4 -10 -10 -10 -5
0 -10 5 -10 10 0 6 5 10 10 10 6 0 10 -4 10 -10z m847 -22 c-3 -7 -5 -2 -5 12
0 14 2 19 5 13 2 -7 2 -19 0 -25z m-932 11 c11 -17 -1 -21 -15 -4 -8 9 -8 15
-2 15 6 0 14 -5 17 -11z m-1865 -9 c0 -5 -7 -7 -15 -4 -8 4 -15 1 -15 -5 0 -6
-4 -11 -10 -11 -5 0 -7 7 -4 15 7 16 44 21 44 5z m77 -28 c-14 -17 -22 0 -12
26 5 14 7 14 15 2 5 -9 4 -20 -3 -28z m273 24 c0 -16 -18 -31 -27 -22 -8 8 5
36 17 36 5 0 10 -6 10 -14z m884 5 c3 -5 0 -11 -8 -14 -15 -6 -26 1 -26 15 0
11 27 10 34 -1z m1251 -31 c-3 -4 -14 -6 -25 -3 -20 5 -25 15 -14 26 9 9 46
-12 39 -23z m-1125 4 c0 -8 -4 -12 -10 -9 -5 3 -10 10 -10 16 0 5 5 9 10 9 6
0 10 -7 10 -16z m157 -16 c-3 -7 -5 -2 -5 12 0 14 2 19 5 13 2 -7 2 -19 0 -25z
m1328 22 c3 -5 1 -10 -4 -10 -6 0 -11 5 -11 10 0 6 2 10 4 10 3 0 8 -4 11 -10z
m-1918 -22 c-3 -8 -6 -5 -6 6 -1 11 2 17 5 13 3 -3 4 -12 1 -19z m473 -3 c0
-7 6 -15 13 -18 6 -2 9 -8 4 -12 -4 -5 -14 0 -22 11 -16 22 -20 48 -5 39 6 -3
10 -12 10 -20z m161 18 c4 -42 3 -76 -3 -80 -5 -2 -9 -14 -9 -26 -1 -17 -3
-15 -8 8 -4 17 -3 33 3 36 5 4 6 21 3 38 -4 18 -2 31 3 31 6 0 10 -3 11 -7z
m-1863 -14 c-2 -6 -8 -10 -13 -10 -5 0 -11 4 -13 10 -2 6 4 11 13 11 9 0 15
-5 13 -11z m503 -2 c-1 -12 -15 -9 -19 4 -3 6 1 10 8 8 6 -3 11 -8 11 -12z
m979 -13 c0 -8 -4 -14 -10 -14 -5 0 -10 9 -10 21 0 11 5 17 10 14 6 -3 10 -13
10 -21z m1080 5 c0 -5 -12 -9 -27 -9 -27 1 -27 1 -9 15 19 14 36 12 36 -6z
m-2245 1 c-3 -5 -10 -10 -16 -10 -5 0 -9 5 -9 10 0 6 7 10 16 10 8 0 12 -4 9
-10z m115 -12 c0 -6 -7 -7 -16 -4 -9 3 -18 6 -20 6 -3 0 -3 4 1 10 7 11 35 2
35 -12z m534 1 c-3 -5 -10 -7 -15 -3 -5 3 -7 10 -3 15 3 5 10 7 15 3 5 -3 7
-10 3 -15z m76 11 c0 -5 -8 -10 -17 -10 -15 0 -16 2 -3 10 19 12 20 12 20 0z
m-1084 -11 c3 -6 1 -16 -5 -22 -9 -9 -14 -8 -21 3 -9 15 -4 30 10 30 5 0 12
-5 16 -11z m1595 -22 c-8 -8 -11 -7 -11 4 0 20 13 34 18 19 3 -7 -1 -17 -7
-23z m399 17 c0 -2 -9 -4 -20 -4 -11 0 -20 4 -20 9 0 5 9 7 20 4 11 -3 20 -7
20 -9z m732 -7 c-1 -9 9 -24 23 -33 16 -11 23 -20 17 -26 -14 -14 -52 9 -52
32 0 10 -3 26 -7 36 -4 12 -2 15 8 12 8 -3 13 -12 11 -21z m326 5 c9 9 12 8
12 -5 0 -9 -6 -17 -14 -17 -8 0 -17 -6 -19 -12 -3 -8 -6 -6 -6 5 -1 9 -8 17
-17 17 -9 0 -12 -5 -8 -11 4 -7 1 -10 -6 -7 -20 6 -24 28 -6 28 9 0 16 5 16
12 0 6 7 5 18 -5 14 -13 21 -14 30 -5z m-1618 -18 c0 -21 -4 -25 -22 -22 -13
2 -23 10 -23 18 0 9 7 14 18 12 9 -2 17 2 17 8 0 5 2 10 5 10 3 0 5 -12 5 -26z
m1525 16 c3 -5 1 -18 -5 -27 -10 -16 -11 -16 -7 4 3 12 0 24 -7 27 -8 3 -8 5
1 5 6 1 15 -3 18 -9z m300 0 c3 -5 -1 -10 -9 -10 -8 0 -18 5 -21 10 -3 6 1 10
9 10 8 0 18 -4 21 -10z m-3375 -9 c0 -12 -20 -25 -27 -18 -7 7 6 27 18 27 5 0
9 -4 9 -9z m275 -1 c3 -5 1 -10 -4 -10 -6 0 -11 5 -11 10 0 6 2 10 4 10 3 0 8
-4 11 -10z m265 -4 c-4 -4 -16 -4 -26 2 -16 9 -14 10 8 9 15 -1 23 -6 18 -11z
m1820 -2 c0 -17 -22 -14 -28 4 -2 7 3 12 12 12 9 0 16 -7 16 -16z m-1375 -4
c-3 -5 -10 -10 -16 -10 -5 0 -9 5 -9 10 0 6 7 10 16 10 8 0 12 -4 9 -10z m434
-5 c15 5 21 2 21 -9 0 -15 -12 -19 -55 -19 -31 1 -35 2 -35 14 0 6 7 9 15 5
10 -3 15 1 15 12 0 13 2 14 9 3 5 -8 16 -11 30 -6z m361 5 c-8 -5 -22 -9 -30
-9 -10 0 -8 3 5 9 27 12 43 12 25 0z m1219 -17 c8 -18 9 -29 1 -37 -7 -7 -10
-3 -10 12 0 13 -6 22 -15 22 -9 0 -13 -7 -9 -17 2 -10 -1 -8 -8 5 -9 19 -9 25
3 33 21 13 25 11 38 -18z m-1509 2 c0 -8 -4 -15 -10 -15 -5 0 -7 7 -4 15 4 8
8 15 10 15 2 0 4 -7 4 -15z m357 -7 c-3 -8 -6 -5 -6 6 -1 11 2 17 5 13 3 -3 4
-12 1 -19z m339 5 c18 -23 17 -33 -1 -33 -16 0 -38 34 -28 44 10 9 15 7 29
-11z m-1282 -9 c4 -10 1 -14 -6 -12 -15 5 -23 28 -10 28 5 0 13 -7 16 -16z
m316 -4 c0 -11 -4 -20 -10 -20 -5 0 -10 2 -10 4 0 2 -3 11 -6 20 -4 11 -1 16
10 16 9 0 16 -8 16 -20z m436 6 c15 -16 19 -36 6 -36 -18 0 -45 28 -38 38 9
15 14 15 32 -2z m-482 -7 c-3 -6 -1 -15 6 -19 6 -4 10 -18 8 -31 -4 -23 -5
-23 -12 -4 -4 11 -11 27 -16 36 -9 17 -4 29 12 29 5 0 6 -5 2 -11z m1546 -33
c0 -6 -5 -18 -10 -26 -8 -12 -10 -12 -10 5 0 11 -3 31 -6 45 -5 24 -5 24 10 6
9 -11 16 -25 16 -30z m69 18 c3 -16 1 -17 -13 -5 -19 16 -21 34 -3 29 6 -3 14
-13 16 -24z m-1919 0 c0 -8 -4 -12 -10 -9 -5 3 -10 10 -10 16 0 5 5 9 10 9 6
0 10 -7 10 -16z m1060 9 c-1 -14 -30 -47 -36 -41 -6 7 17 48 28 48 5 0 8 -3 8
-7z m146 -7 c18 -14 18 -15 0 -22 -11 -4 -21 -2 -27 7 -19 31 -5 38 27 15z
m744 4 c0 -5 -4 -10 -10 -10 -5 0 -10 5 -10 10 0 6 5 10 10 10 6 0 10 -4 10
-10z m114 -5 c-4 -8 -8 -15 -10 -15 -2 0 -4 7 -4 15 0 8 4 15 10 15 5 0 7 -7
4 -15z m289 0 c7 -17 3 -20 -40 -30 -41 -8 -44 8 -5 28 36 19 39 20 45 2z
m-3333 -5 c0 -5 -4 -10 -10 -10 -5 0 -10 5 -10 10 0 6 5 10 10 10 6 0 10 -4
10 -10z m1407 -4 c8 -7 5 -40 -4 -43 -8 -3 -13 4 -13 17 0 17 -4 20 -20 15
-19 -6 -27 5 -13 18 5 6 41 1 50 -7z m1316 -12 c-27 -20 -39 -17 -17 5 10 10
23 16 27 14 5 -3 0 -11 -10 -19z m962 16 c3 -5 -1 -10 -10 -10 -9 0 -13 5 -10
10 3 6 8 10 10 10 2 0 7 -4 10 -10z m-2475 -12 c0 -4 -6 -8 -13 -8 -7 0 -23
-7 -35 -16 -18 -13 -21 -19 -11 -30 6 -8 8 -18 4 -22 -4 -4 -10 -2 -12 4 -2 7
-13 10 -24 7 -14 -4 -18 -1 -13 10 8 23 -16 31 -31 11 -13 -17 -16 -17 -24 -4
-13 20 -3 29 39 34 19 3 36 6 38 7 1 1 6 2 11 3 5 0 13 4 17 8 9 10 54 6 54
-4z m396 -12 c-4 -15 0 -28 9 -36 17 -14 20 -30 5 -30 -5 0 -10 6 -10 14 0 8
-4 17 -9 20 -13 8 -41 -4 -41 -18 0 -6 -10 -27 -21 -46 -21 -34 -21 -34 -33
-12 -8 16 -15 19 -22 12 -8 -8 -19 -7 -37 1 -28 13 -62 5 -52 -11 3 -5 -3 -10
-14 -10 -12 0 -21 -5 -21 -12 0 -8 -3 -9 -10 -2 -12 12 -3 44 11 44 5 0 9 7 9
16 0 12 8 14 43 9 106 -16 125 -11 91 23 -12 12 -13 17 -4 20 6 2 17 -1 23 -7
16 -16 37 -14 37 4 0 8 7 15 15 15 8 0 15 7 15 15 0 8 5 15 11 15 7 0 9 -9 5
-24z m1171 2 c-3 -8 -6 -5 -6 6 -1 11 2 17 5 13 3 -3 4 -12 1 -19z m423 7 c0
-10 -10 -15 -30 -15 -47 0 -35 27 13 29 9 1 17 -6 17 -14z m-2340 -10 c0 -8
-4 -15 -10 -15 -5 0 -10 7 -10 15 0 8 5 15 10 15 6 0 10 -7 10 -15z m1239 -28
c1 -5 -3 -5 -9 -2 -5 3 -10 16 -9 28 0 21 1 21 9 2 5 -11 9 -24 9 -28z m1141
34 c0 -5 -7 -11 -15 -15 -15 -5 -20 5 -8 17 9 10 23 9 23 -2z m-2910 -17 c0
-8 -4 -12 -10 -9 -5 3 -10 10 -10 16 0 5 5 9 10 9 6 0 10 -7 10 -16z m1410 1
c0 -8 -4 -15 -9 -15 -13 0 -22 16 -14 24 11 11 23 6 23 -9z m93 -6 c5 -3 2 -9
-7 -12 -12 -5 -16 0 -16 15 0 12 3 17 8 12 4 -5 11 -12 15 -15z m799 -3 c12
-18 9 -31 -4 -18 -7 7 -20 12 -30 12 -10 0 -18 4 -18 8 0 12 44 10 52 -2z
m378 -2 c0 -8 -5 -12 -10 -9 -6 4 -8 11 -5 16 9 14 15 11 15 -7z m-2210 -7 c0
-7 -11 -23 -26 -36 -17 -15 -23 -28 -19 -41 4 -14 -2 -27 -19 -44 -31 -28 -32
-34 -5 -57 18 -15 19 -20 8 -32 -8 -7 -22 -16 -31 -20 -25 -9 -23 -31 2 -24
24 6 33 -6 32 -44 0 -19 4 -29 14 -29 8 0 14 7 14 15 0 8 9 24 20 35 18 18 20
19 20 2 0 -26 -29 -62 -50 -62 -10 0 -21 -3 -23 -7 -4 -8 29 -44 38 -42 17 2
24 -9 19 -28 -6 -21 -18 -27 -51 -26 -7 1 -13 -3 -13 -8 0 -5 -6 -9 -14 -9
-17 0 -27 35 -14 48 7 7 5 22 -5 43 -18 40 -21 122 -7 149 15 29 -5 26 -35 -5
-29 -28 -31 -42 -8 -67 15 -17 15 -18 -4 -18 -12 0 -23 -7 -27 -15 -8 -22 -36
-18 -36 4 0 11 -8 21 -17 23 -16 3 -16 4 0 20 20 19 22 38 5 38 -7 0 -6 5 4
13 8 6 21 26 29 44 14 32 46 50 63 33 11 -11 -15 -38 -32 -32 -6 2 -12 -1 -12
-7 0 -16 26 -13 40 4 6 8 17 13 23 12 7 -1 13 5 13 13 1 8 2 21 3 28 0 6 7 11
14 10 14 -3 16 43 3 80 -5 14 -3 22 4 22 6 0 8 -6 5 -12 -4 -7 2 -4 12 8 28
32 63 43 63 21z m115 3 c3 -5 1 -10 -4 -10 -6 0 -11 5 -11 10 0 6 2 10 4 10 3
0 8 -4 11 -10z m350 0 c-3 -5 6 -12 20 -16 19 -5 25 -13 25 -33 0 -15 7 -37
16 -49 18 -26 10 -64 -12 -55 -10 4 -14 -2 -14 -22 0 -14 -4 -24 -9 -21 -4 3
-22 0 -40 -7 -26 -10 -31 -16 -26 -34 3 -13 1 -23 -5 -23 -5 0 -10 7 -10 15 0
8 -7 15 -15 15 -18 0 -19 17 -2 53 14 30 22 34 31 12 7 -21 29 -19 50 4 13 15
14 20 4 24 -10 3 -10 7 -1 17 9 10 9 18 1 33 -8 16 -7 22 6 29 25 14 19 28
-14 28 -28 0 -30 -2 -30 -40 0 -31 -3 -38 -15 -34 -10 4 -15 0 -15 -10 0 -10
-12 -28 -27 -42 -16 -15 -27 -34 -25 -45 3 -20 -12 -26 -23 -9 -10 16 -72 12
-79 -5 -3 -9 -19 -21 -35 -26 -20 -7 -38 -26 -54 -57 -21 -39 -30 -47 -51 -45
-14 1 -26 -2 -26 -8 0 -5 4 -9 9 -9 19 0 18 -38 -2 -55 -16 -14 -24 -15 -39
-6 -10 6 -23 9 -28 6 -6 -4 -10 1 -10 9 0 9 5 16 11 16 7 0 8 11 4 31 -6 24
-4 30 6 27 8 -3 16 -18 19 -34 5 -29 21 -36 29 -13 2 7 -1 9 -8 5 -7 -5 -11 3
-11 23 0 24 4 31 20 31 11 0 20 7 20 15 0 8 8 15 19 15 10 0 21 8 23 18 4 15
1 18 -18 14 -17 -3 -24 0 -24 10 0 11 -7 14 -26 10 -24 -4 -25 -3 -14 18 7 13
8 20 1 16 -5 -4 -15 3 -21 15 -9 16 -18 19 -36 15 -13 -4 -24 -3 -24 2 0 14
23 32 41 32 9 0 19 7 23 15 9 26 26 17 26 -14 0 -40 17 -48 32 -17 7 16 20 26
32 26 27 1 56 23 56 42 0 11 -7 14 -26 10 -19 -3 -25 -1 -20 7 9 14 66 15 67
1 1 -5 2 -14 3 -19 3 -21 16 -23 16 -2 0 19 5 22 28 20 15 -2 33 0 40 5 21 13
34 -7 23 -35 -5 -13 -12 -33 -16 -44 -6 -17 -9 -15 -22 18 -18 45 -33 48 -33
7 0 -19 -5 -30 -14 -30 -8 0 -17 -8 -21 -17 -6 -17 -7 -17 -16 -1 -6 10 -16
15 -25 11 -15 -5 -15 -7 0 -15 9 -5 14 -13 11 -18 -11 -18 27 -18 58 0 17 11
40 20 49 20 9 0 20 9 23 20 3 11 13 20 21 20 8 0 14 7 14 15 0 8 7 15 16 15
10 0 14 5 10 15 -3 9 1 18 9 21 8 4 15 12 15 20 0 7 8 18 18 24 13 9 9 10 -20
5 -42 -7 -50 1 -15 15 30 12 80 12 72 0z m95 0 c-20 -13 -40 -13 -40 0 0 6 12
10 28 10 21 0 24 -2 12 -10z m781 -18 c-9 -3 -9 -8 1 -20 12 -15 11 -16 -4 -3
-14 11 -15 17 -6 35 9 16 13 17 16 6 3 -7 0 -16 -7 -18z m429 -3 c0 -10 -4
-19 -9 -19 -10 0 -21 36 -14 44 10 10 23 -5 23 -25z m-380 -1 c0 -13 -23 -5
-28 10 -2 7 2 10 12 6 9 -3 16 -11 16 -16z m-1155 2 c-3 -5 -11 -10 -16 -10
-6 0 -7 5 -4 10 3 6 11 10 16 10 6 0 7 -4 4 -10z m725 0 c0 -5 -7 -7 -15 -4
-8 4 -15 8 -15 10 0 2 7 4 15 4 8 0 15 -4 15 -10z m470 0 c0 -5 -4 -10 -10
-10 -5 0 -10 5 -10 10 0 6 5 10 10 10 6 0 10 -4 10 -10z m683 -10 c6 -22 -16
-27 -43 -10 -12 8 -10 10 8 10 13 0 20 4 17 10 -3 6 -2 10 3 10 5 0 12 -9 15
-20z m-2823 -16 c0 -8 7 -14 16 -14 8 0 12 -5 9 -10 -4 -6 -12 -7 -18 -3 -7 4
-22 6 -35 4 -23 -3 -23 -2 -7 23 17 26 35 26 35 0z m790 16 c0 -5 -4 -10 -10
-10 -5 0 -10 5 -10 10 0 6 5 10 10 10 6 0 10 -4 10 -10z m1020 -19 c0 -14 -2
-14 -11 -1 -8 12 -12 12 -16 2 -4 -10 -8 -10 -18 -2 -11 9 -17 5 -29 -17 l-15
-28 -1 28 c0 18 5 27 16 27 8 0 13 4 10 8 -2 4 11 6 30 4 23 -3 34 -9 34 -21z
m69 1 c-14 -5 -39 6 -39 17 0 5 11 4 25 -2 13 -7 20 -14 14 -15z m331 8 c0 -8
-24 -20 -41 -20 -5 0 -9 8 -9 19 0 14 6 17 25 13 14 -2 25 -8 25 -12z m-2020
0 c0 -6 -7 -13 -15 -17 -9 -3 -15 -15 -13 -26 2 -11 -2 -22 -8 -24 -11 -3 -10
28 1 65 5 14 35 16 35 2z m810 6 c0 -2 -7 -6 -15 -10 -8 -3 -15 -1 -15 4 0 6
7 10 15 10 8 0 15 -2 15 -4z m640 -6 c0 -5 -2 -10 -4 -10 -3 0 -8 5 -11 10 -3
6 -1 10 4 10 6 0 11 -4 11 -10z m377 -12 c-3 -8 -6 -5 -6 6 -1 11 2 17 5 13 3
-3 4 -12 1 -19z m523 2 c0 -4 -7 -10 -15 -14 -10 -4 -15 1 -15 14 0 13 5 18
15 14 8 -4 15 -10 15 -14z m-2715 0 c8 -13 -13 -40 -31 -40 -14 0 -19 31 -7
43 10 10 31 8 38 -3z m1035 0 c0 -5 -4 -10 -9 -10 -6 0 -13 5 -16 10 -3 6 1
10 9 10 9 0 16 -4 16 -10z m-105 -10 c3 -5 2 -10 -4 -10 -5 0 -13 5 -16 10 -3
6 -2 10 4 10 5 0 13 -4 16 -10z m-645 -4 c0 -3 -4 -8 -10 -11 -5 -3 -10 -1
-10 4 0 6 5 11 10 11 6 0 10 -2 10 -4z m401 -19 c-6 -8 -10 -25 -9 -38 2 -16
-2 -24 -12 -24 -9 0 -14 7 -12 19 4 24 33 68 40 62 3 -3 0 -12 -7 -19z m66 17
c-3 -3 -12 -4 -19 -1 -8 3 -5 6 6 6 11 1 17 -2 13 -5z m932 -7 c-9 -7 -18 -21
-20 -32 -5 -23 -59 -47 -80 -34 -12 8 -12 10 1 19 8 5 26 10 39 10 20 0 21 2
11 15 -10 12 -8 16 11 24 13 5 31 10 39 10 13 0 12 -2 -1 -12z m139 -6 c2 -6
-2 -11 -10 -11 -23 0 -58 12 -58 20 0 12 64 4 68 -9z m199 13 c-3 -3 -12 -4
-19 -1 -8 3 -5 6 6 6 11 1 17 -2 13 -5z m-1922 -43 c-9 -41 -31 -59 -40 -32
-9 28 2 59 23 64 24 5 25 3 17 -32z m1637 24 c0 -5 -5 -11 -11 -13 -6 -2 -11
4 -11 13 0 9 5 15 11 13 6 -2 11 -8 11 -13z m-952 -5 c0 -5 -4 -10 -10 -10 -5
0 -10 5 -10 10 0 6 5 10 10 10 6 0 10 -4 10 -10z m238 -5 c2 -2 1 -8 -3 -14
-11 -19 -42 -12 -48 10 -5 18 -2 20 21 14 15 -4 29 -8 30 -10z m-738 -31 c0
-8 -4 -14 -10 -14 -5 0 -10 9 -10 21 0 11 5 17 10 14 6 -3 10 -13 10 -21z
m587 -6 c-3 -8 -6 -5 -6 6 -1 11 2 17 5 13 3 -3 4 -12 1 -19z m33 12 c0 -5 -2
-10 -4 -10 -3 0 -8 5 -11 10 -3 6 -1 10 4 10 6 0 11 -4 11 -10z m585 0 c3 -6
17 -7 31 -4 38 10 29 -15 -12 -32 -28 -12 -34 -19 -29 -34 5 -16 2 -20 -17
-19 -13 0 -18 3 -11 5 20 8 4 31 -20 29 -15 -2 -16 -1 -4 2 13 3 17 11 14 24
-7 26 34 51 48 29z m-873 -33 c-12 -13 -22 -29 -22 -36 0 -8 -6 -11 -16 -7
-12 5 -15 2 -10 -11 7 -17 6 -17 -10 -2 -21 22 -9 43 37 68 42 23 50 18 21
-12z m-612 9 c0 -34 -29 -69 -60 -71 -42 -4 -58 31 -18 39 29 6 48 19 48 32 0
8 7 14 15 14 8 0 15 -6 15 -14z m155 -45 c-3 -6 -11 -11 -17 -11 -6 0 -6 6 2
15 14 17 26 13 15 -4z m-48 -7 c-3 -3 -12 -4 -19 -1 -8 3 -5 6 6 6 11 1 17 -2
13 -5z m778 -14 c3 -5 1 -10 -4 -10 -6 0 -11 5 -11 10 0 6 2 10 4 10 3 0 8 -4
11 -10z m-807 -25 c6 -3 12 -12 12 -21 0 -12 -6 -15 -21 -11 -12 3 -32 1 -46
-6 -19 -9 -23 -16 -18 -36 5 -21 4 -23 -8 -12 -8 6 -18 23 -21 36 -4 14 -11
25 -16 25 -5 0 -7 6 -4 14 3 8 12 12 20 9 8 -3 14 0 14 6 0 11 47 8 88 -4z
m1302 6 c0 -10 -24 -21 -43 -21 -7 0 -3 7 7 15 22 17 36 19 36 6z m-520 -11
c0 -5 -5 -10 -11 -10 -5 0 -7 5 -4 10 3 6 8 10 11 10 2 0 4 -4 4 -10z m3322
-15 c-4 -26 -16 -32 -27 -15 -6 9 14 39 26 40 3 0 4 -11 1 -25z m-2916 -5 c25
0 15 -18 -13 -23 -35 -7 -38 -4 -21 22 7 12 14 17 16 11 2 -5 10 -10 18 -10z
m-101 -48 c-8 -8 -25 10 -19 20 4 6 9 5 15 -3 4 -7 6 -15 4 -17z m-55 -2 c0
-5 -4 -10 -10 -10 -5 0 -10 5 -10 10 0 6 5 10 10 10 6 0 10 -4 10 -10z m35
-30 c-3 -5 -13 -10 -21 -10 -8 0 -14 5 -14 10 0 6 9 10 21 10 11 0 17 -4 14
-10z m-945 -10 c0 -5 -4 -10 -10 -10 -5 0 -10 5 -10 10 0 6 5 10 10 10 6 0 10
-4 10 -10z m885 -10 c-3 -5 -13 -10 -21 -10 -8 0 -14 5 -14 10 0 6 9 10 21 10
11 0 17 -4 14 -10z m-815 -32 c0 -30 0 -31 -20 -13 -25 22 -25 32 -2 38 9 3
18 5 20 6 1 0 2 -13 2 -31z m465 -68 c-5 -8 -11 -8 -17 -2 -6 6 -7 16 -3 22 5
8 11 8 17 2 6 -6 7 -16 3 -22z m195 21 c0 -6 -4 -13 -10 -16 -5 -3 -10 1 -10
9 0 9 5 16 10 16 6 0 10 -4 10 -9z m-636 -45 c-3 -9 -10 -13 -16 -10 -5 3 -4
12 3 20 15 18 22 13 13 -10z m2521 -226 c-5 -90 -1 -83 -44 -76 -26 4 -41 2
-43 -6 -3 -8 -16 -8 -51 3 -26 7 -47 17 -47 21 0 5 -16 16 -35 25 -61 29 -42
40 93 53 136 13 129 14 127 -20z m68 13 c-7 -2 -19 -2 -25 0 -7 3 -2 5 12 5
14 0 19 -2 13 -5z m-503 -73 c0 -5 -4 -10 -10 -10 -5 0 -10 5 -10 10 0 6 5 10
10 10 6 0 10 -4 10 -10z m-69 -26 c-12 -15 -21 -33 -21 -40 0 -7 -8 -18 -19
-23 -25 -14 -151 -26 -151 -15 1 13 50 67 56 61 3 -3 29 6 57 19 29 13 62 24
75 24 l23 0 -20 -26z m-346 -68 c-38 -31 -55 -34 -195 -41 -82 -4 -109 -3 -95
5 27 14 241 58 285 59 l35 1 -30 -24z m816 -37 c11 -5 17 -14 14 -20 -4 -5 0
-11 7 -14 19 -7 20 -41 2 -55 -23 -20 -58 -3 -80 38 -19 35 -19 40 -5 50 21
14 38 14 62 1z m-136 -19 c3 -5 -1 -10 -9 -10 -9 0 -16 5 -16 10 0 6 4 10 9
10 6 0 13 -4 16 -10z m-485 -10 c0 -5 -4 -10 -8 -10 -4 0 -16 -14 -25 -30 -15
-25 -62 -60 -82 -60 -12 0 -3 47 15 78 17 27 25 32 60 32 22 0 40 -4 40 -10z
m70 -39 c-44 -52 -70 -69 -70 -47 0 20 75 96 94 96 13 0 7 -12 -24 -49z m-335
30 c11 -18 -33 -31 -102 -30 -72 0 -120 12 -93 22 44 17 186 22 195 8z m-225
-41 c23 -6 19 -10 -42 -44 -66 -37 -88 -39 -88 -10 0 8 -8 14 -17 14 -16 0
-16 2 -3 11 12 8 11 9 -5 5 -19 -5 -87 13 -102 27 -4 4 21 7 56 5 34 -1 65 -6
67 -10 7 -10 34 -10 33 0 -4 24 18 24 101 2z m96 -53 l27 -24 -54 -25 c-30
-14 -73 -28 -96 -31 -36 -4 -43 -2 -43 12 0 27 49 64 110 84 25 9 28 8 56 -16z
m75 13 c5 0 9 -7 9 -15 0 -18 -21 -20 -38 -3 -17 17 -15 31 4 24 9 -3 20 -6
25 -6z m-335 -56 c18 -15 18 -15 -6 -10 -14 3 -33 6 -42 6 -10 0 -18 5 -18 10
0 16 44 12 66 -6z m331 -67 c-2 -6 -9 -13 -17 -15 -9 -3 -11 1 -7 11 3 9 2 19
-3 22 -18 11 -39 -8 -47 -43 -7 -31 -14 -37 -43 -44 -46 -10 -62 -3 -77 29
-21 44 -26 40 97 73 64 17 65 17 83 -3 10 -11 16 -25 14 -30z m803 33 c0 -5
-4 -10 -10 -10 -5 0 -10 5 -10 10 0 6 5 10 10 10 6 0 10 -4 10 -10z m-1380
-39 c0 -25 -4 -29 -32 -34 -18 -2 -42 -1 -52 3 -19 7 -19 8 5 22 72 46 79 46
79 9z m240 3 c0 -8 -4 -12 -10 -9 -5 3 -10 10 -10 16 0 5 5 9 10 9 6 0 10 -7
10 -16z m-159 -17 c-13 -13 -26 -3 -16 12 3 6 11 8 17 5 6 -4 6 -10 -1 -17z
m724 3 c3 -10 2 -28 -4 -38 -12 -22 -5 -32 21 -32 10 0 18 -4 18 -8 0 -16 -13
-21 -31 -12 -12 7 -22 6 -32 -5 -17 -17 -26 -9 -46 41 -10 26 -10 36 1 53 17
28 64 29 73 1z m488 8 c8 -27 -6 -45 -46 -57 -23 -6 -48 -14 -54 -17 -7 -3
-13 1 -13 10 0 9 18 25 39 36 22 11 42 24 46 30 9 14 22 13 28 -2z m-656 -30
c-3 -8 -6 -5 -6 6 -1 11 2 17 5 13 3 -3 4 -12 1 -19z m344 -42 c6 -6 13 -6 21
2 13 13 50 16 61 6 3 -3 1 -17 -4 -31 -13 -36 -5 -39 36 -14 43 25 54 26 70 5
9 -13 16 -14 32 -5 16 8 22 8 25 0 2 -7 17 -11 33 -11 17 1 69 2 116 2 78 1
90 3 134 31 39 25 56 30 84 25 51 -8 61 -23 31 -46 -13 -10 -37 -21 -53 -24
-24 -5 -27 -8 -17 -26 6 -11 9 -24 6 -29 -3 -4 17 -8 44 -9 39 -1 57 5 88 28
38 27 42 28 83 17 24 -7 53 -17 63 -23 19 -11 19 -15 6 -54 -40 -121 -372
-256 -600 -244 -61 3 -67 5 -99 41 -44 50 -91 123 -91 142 0 9 16 -10 36 -42
46 -73 63 -75 56 -4 -2 28 -6 54 -8 56 -2 2 -18 6 -36 10 -39 8 -51 39 -19 48
12 3 21 8 21 12 0 10 -62 35 -89 35 -21 1 -27 9 -38 51 -7 28 -12 66 -11 85 1
34 1 34 5 5 3 -16 9 -34 14 -39z m-1696 45 c3 -5 1 -12 -5 -16 -5 -3 -10 1
-10 9 0 18 6 21 15 7z m1393 -19 c6 -18 -15 -14 -22 4 -4 10 -1 14 6 12 6 -2
14 -10 16 -16z m-90 -25 c9 -18 11 -43 6 -72 -5 -37 -10 -45 -28 -45 -21 0
-56 -47 -56 -76 0 -16 26 -19 35 -4 4 6 10 8 15 5 30 -18 -81 -224 -166 -309
-44 -44 -133 -106 -151 -106 -18 0 -16 12 11 61 48 86 89 195 113 304 26 117
29 141 17 194 -5 26 -4 33 7 29 8 -3 15 -14 17 -26 5 -33 36 -24 44 13 3 15
11 20 31 18 18 -1 32 6 44 22 22 31 44 28 61 -8z m-1360 6 c5 -17 -26 -29 -40
-15 -6 6 -7 15 -3 22 9 14 37 9 43 -7z m184 -21 c-1 -7 2 -73 8 -146 10 -133
18 -170 59 -259 l21 -46 -26 -38 c-14 -21 -31 -38 -37 -38 -7 0 -14 21 -17 47
-4 35 -14 57 -37 80 -17 18 -34 47 -37 63 -9 46 -17 335 -10 346 9 15 80 7 76
-9z m583 -13 c12 -19 -5 -23 -22 -6 -16 16 -16 17 -1 17 9 0 20 -5 23 -11z
m900 -49 c4 -6 11 -8 16 -4 12 7 59 -41 59 -61 0 -7 7 -21 15 -29 9 -9 31 -49
50 -91 33 -71 33 -75 14 -75 -44 0 -186 123 -161 139 18 11 -25 101 -47 101
-10 0 -6 6 9 14 32 18 37 18 45 6z m-1858 -122 c-3 -7 -5 -2 -5 12 0 14 2 19
5 13 2 -7 2 -19 0 -25z m2820 -20 c-35 -52 -60 -78 -75 -78 -7 0 -10 -4 -7
-10 3 -5 0 -8 -7 -5 -7 3 -23 -10 -35 -29 -14 -22 -33 -37 -52 -41 -17 -4 -35
-13 -39 -21 -12 -22 -72 -33 -221 -38 -117 -5 -132 -4 -121 9 7 8 25 15 41 15
36 0 153 25 243 51 68 20 207 97 223 122 8 12 62 57 69 57 2 0 -7 -15 -19 -32z
m147 -13 c-3 -12 -1 -26 5 -29 6 -4 11 0 11 8 0 9 5 16 10 16 6 0 10 -11 10
-24 0 -14 5 -28 10 -31 6 -3 10 -16 9 -28 0 -15 -2 -17 -6 -7 -8 20 -40 50
-46 44 -3 -3 -3 -21 0 -40 7 -44 -13 -46 -23 -2 -3 18 -13 42 -21 54 -12 19
-11 24 9 47 26 29 41 26 32 -8z m58 -187 c-7 -7 -12 -8 -12 -2 0 14 12 26 19
19 2 -3 -1 -11 -7 -17z m-657 -38 c121 -7 238 -32 264 -56 11 -10 5 -14 -35
-21 -142 -24 -307 10 -374 75 l-25 25 25 -8 c14 -4 79 -11 145 -15z m728 -142
c6 -4 8 -10 4 -15 -12 -12 -27 19 -25 52 l1 30 4 -30 c3 -16 10 -33 16 -37z
m7 -44 c0 -8 -4 -12 -10 -9 -5 3 -10 10 -10 16 0 5 5 9 10 9 6 0 10 -7 10 -16z
m2155 -424 c3 -5 -3 -10 -14 -10 -12 0 -21 5 -21 10 0 6 6 10 14 10 8 0 18 -4
21 -10z m-1991 -8 c3 -5 -9 -53 -26 -107 -22 -73 -37 -105 -59 -124 -16 -14
-29 -34 -29 -44 0 -17 -2 -17 -15 -3 -13 12 -14 20 -4 37 9 17 13 19 20 8 7
-11 9 -10 9 4 0 10 14 62 31 115 17 53 33 103 35 110 4 14 30 16 38 4z m1796
-22 c0 -5 -18 -10 -40 -10 -29 0 -40 -4 -40 -15 0 -8 -7 -15 -15 -15 -21 0
-19 38 3 43 33 9 92 7 92 -3z m240 -1 c0 -8 17 -10 55 -6 31 3 55 2 55 -4 0
-5 24 -9 54 -9 34 0 60 -5 69 -14 7 -8 33 -18 57 -23 24 -4 45 -14 48 -21 5
-15 -23 -16 -51 0 -12 6 -42 15 -67 19 -25 4 -65 12 -90 18 -26 5 -115 7 -207
4 -120 -5 -163 -3 -163 5 0 8 26 12 80 12 64 0 80 3 80 15 0 11 11 15 40 15
23 0 40 -5 40 -11z m-4070 -55 c0 -8 -4 -14 -10 -14 -5 0 -10 9 -10 21 0 11 5
17 10 14 6 -3 10 -13 10 -21z m-65 6 c5 -9 -15 -15 -38 -11 -4 1 -15 -6 -24
-15 -13 -12 -17 -13 -24 -2 -6 9 -3 14 9 16 9 2 21 8 27 13 12 12 42 11 50 -1z
m489 -209 c3 -4 17 -6 31 -3 14 2 31 -1 39 -7 7 -6 21 -9 30 -5 10 4 16 1 16
-9 0 -17 -24 -40 -33 -31 -3 3 -21 1 -41 -6 -27 -8 -39 -8 -54 1 -16 10 -23
10 -36 0 -20 -17 -21 0 -3 32 19 34 40 46 51 28z m-826 -158 c-4 -22 -22 -20
-26 1 -2 10 3 16 13 16 10 0 15 -7 13 -17z m701 -148 c28 -9 71 -17 94 -18 48
-2 300 11 367 19 42 5 44 4 26 -10 -19 -15 -19 -16 2 -35 12 -10 22 -23 22
-28 0 -20 -108 -123 -129 -123 -12 0 -21 -4 -21 -8 0 -5 -19 -19 -41 -32 -38
-21 -58 -23 -203 -28 -132 -4 -170 -2 -209 12 -56 19 -67 15 -67 -23 0 -20 11
-36 39 -59 22 -18 43 -32 47 -32 4 0 15 -6 23 -14 9 -8 48 -26 86 -41 100 -38
202 -43 332 -17 77 16 122 20 185 15 49 -3 99 -1 122 5 46 13 55 9 38 -19 -9
-15 -10 -25 -1 -41 10 -18 8 -24 -12 -39 -23 -18 -36 -23 -51 -20 -5 0 -8 -12
-8 -27 0 -35 -16 -52 -52 -52 -25 0 -27 -2 -18 -26 9 -22 7 -27 -10 -31 -11
-3 -20 -12 -20 -19 0 -8 -6 -13 -12 -11 -7 1 -14 -9 -16 -22 -2 -13 -12 -26
-23 -28 -10 -3 -19 -10 -19 -17 -1 -19 -49 -48 -69 -41 -12 4 -21 0 -25 -12
-6 -15 -9 -15 -17 -3 -8 11 -12 12 -16 3 -8 -20 -162 -17 -191 3 -14 10 -30
13 -40 8 -9 -4 -19 -8 -22 -8 -3 -1 -11 -5 -18 -10 -8 -5 -20 -2 -31 8 -10 9
-25 14 -34 10 -14 -5 -28 5 -65 51 -11 13 -17 13 -28 4 -11 -9 -18 -8 -33 5
-15 13 -20 14 -24 4 -4 -11 -7 -11 -18 0 -11 10 -11 16 -1 32 6 11 12 24 12
30 0 16 -40 12 -46 -5 -4 -8 -10 -15 -16 -15 -5 0 -6 5 -3 10 3 6 3 15 -1 21
-5 8 -9 7 -14 -1 -13 -21 -40 -3 -41 27 -2 41 2 57 13 65 7 4 9 36 5 89 -4 62
-2 90 9 111 13 25 13 32 -1 58 -11 22 -15 62 -15 162 0 73 4 139 8 146 5 7 27
12 53 11 24 -1 55 4 69 9 36 15 69 14 129 -3z m581 -25 c0 -11 -7 -20 -15 -20
-8 0 -15 9 -15 20 0 11 7 20 15 20 8 0 15 -9 15 -20z m-1410 -173 c0 -14 -40
-37 -65 -37 -20 0 -9 23 18 36 31 16 47 16 47 1z m5797 -2059 c-3 -8 -6 -5 -6
6 -1 11 2 17 5 13 3 -3 4 -12 1 -19z m10 -40 c-3 -8 -6 -5 -6 6 -1 11 2 17 5
13 3 -3 4 -12 1 -19z m-1329 -362 c3 -13 -1 -17 -14 -14 -11 2 -20 11 -22 22
-3 13 1 17 14 14 11 -2 20 -11 22 -22z"/>
<path d="M3830 5666 c-8 -10 -8 -21 -2 -32 8 -14 10 -11 14 15 5 36 5 36 -12
17z"/>
<path d="M4040 5900 c0 -5 5 -10 11 -10 5 0 7 5 4 10 -3 6 -8 10 -11 10 -2 0
-4 -4 -4 -10z"/>
<path d="M4045 5850 c-8 -13 -1 -24 14 -19 6 3 7 10 2 18 -6 10 -10 10 -16 1z"/>
<path d="M5775 4740 c-3 -5 3 -10 14 -10 12 0 21 5 21 10 0 6 -6 10 -14 10 -8
0 -18 -4 -21 -10z"/>
<path d="M5735 4730 c4 -6 11 -8 16 -5 14 9 11 15 -7 15 -8 0 -12 -5 -9 -10z"/>
<path d="M5402 4689 c2 -6 8 -10 13 -10 5 0 11 4 13 10 2 6 -4 11 -13 11 -9 0
-15 -5 -13 -11z"/>
<path d="M4750 8086 c0 -9 5 -16 10 -16 6 0 10 4 10 9 0 6 -4 13 -10 16 -5 3
-10 -1 -10 -9z"/>
<path d="M5380 8091 c0 -6 5 -13 10 -16 6 -3 10 1 10 9 0 9 -4 16 -10 16 -5 0
-10 -4 -10 -9z"/>
<path d="M5434 8064 c3 -9 6 -20 6 -25 0 -5 11 -9 25 -9 32 0 32 13 0 34 -31
20 -39 20 -31 0z"/>
<path d="M5180 8025 c0 -17 5 -25 13 -22 6 2 12 12 12 22 0 10 -6 20 -12 23
-8 2 -13 -6 -13 -23z"/>
<path d="M3090 7025 c0 -8 2 -15 4 -15 2 0 6 7 10 15 3 8 1 15 -4 15 -6 0 -10
-7 -10 -15z"/>
<path d="M3075 6950 c-3 -5 -1 -10 4 -10 6 0 11 5 11 10 0 6 -2 10 -4 10 -3 0
-8 -4 -11 -10z"/>
<path d="M6706 6204 c-9 -22 -3 -26 30 -22 27 3 27 4 10 21 -22 21 -32 22 -40
1z"/>
<path d="M6967 6080 c3 -11 9 -17 15 -14 5 3 4 12 -3 20 -16 19 -18 18 -12 -6z"/>
<path d="M7150 5895 c0 -11 11 -15 38 -15 l37 1 -25 14 c-33 19 -50 19 -50 0z"/>
<path d="M3490 5715 c-16 -20 8 -31 27 -13 13 14 13 16 0 21 -9 3 -21 0 -27
-8z"/>
<path d="M3410 5705 c0 -9 6 -12 15 -9 8 4 12 10 9 15 -8 14 -24 10 -24 -6z"/>
<path d="M3482 5672 c-16 -2 -22 -8 -18 -19 3 -8 6 -18 6 -23 0 -4 12 -11 26
-14 19 -5 30 -1 44 16 24 28 25 42 4 34 -9 -4 -22 -3 -28 2 -6 4 -21 6 -34 4z"/>
<path d="M3645 5669 c-10 -15 3 -25 16 -12 7 7 7 13 1 17 -6 3 -14 1 -17 -5z"/>
<path d="M3685 5670 c3 -5 8 -10 11 -10 2 0 4 5 4 10 0 6 -5 10 -11 10 -5 0
-7 -4 -4 -10z"/>
<path d="M3421 5644 c0 -11 3 -14 6 -6 3 7 2 16 -1 19 -3 4 -6 -2 -5 -13z"/>
<path d="M3442 5598 c-16 -16 -15 -29 5 -53 15 -20 15 -19 10 4 -4 14 -2 30 4
37 13 16 -4 27 -19 12z"/>
<path d="M3510 5555 c0 -9 5 -15 11 -13 6 2 11 8 11 13 0 5 -5 11 -11 13 -6 2
-11 -4 -11 -13z"/>
<path d="M3154 5472 c-4 -19 -13 -36 -20 -39 -25 -9 -15 -20 15 -15 34 5 44
29 25 63 l-13 24 -7 -33z"/>
<path d="M3060 5430 c-9 -6 -10 -10 -3 -10 6 0 15 5 18 10 8 12 4 12 -15 0z"/>
<path d="M3045 5389 c-10 -15 3 -25 16 -12 7 7 7 13 1 17 -6 3 -14 1 -17 -5z"/>
<path d="M3000 5340 c0 -10 -4 -21 -10 -25 -5 -3 -6 -13 -3 -21 5 -15 7 -15
15 0 5 9 25 23 44 31 45 19 43 30 -6 32 -33 2 -40 -1 -40 -17z"/>
<path d="M2940 5271 c0 -11 5 -23 10 -26 14 -9 12 -42 -2 -48 -7 -2 -11 -7 -8
-10 3 -3 16 4 30 15 16 14 21 22 13 25 -7 3 -13 18 -13 34 0 19 -5 29 -15 29
-8 0 -15 -9 -15 -19z"/>
<path d="M5090 4596 c0 -2 8 -10 18 -17 15 -13 16 -12 3 4 -13 16 -21 21 -21
13z"/>
<path d="M4120 4550 c0 -5 7 -10 15 -10 8 0 15 5 15 10 0 6 -7 10 -15 10 -8 0
-15 -4 -15 -10z"/>
<path d="M3967 4500 l-28 -30 23 0 c29 0 48 17 48 42 0 25 -10 22 -43 -12z"/>
<path d="M5695 3950 c3 -5 10 -10 16 -10 5 0 9 5 9 10 0 6 -7 10 -16 10 -8 0
-12 -4 -9 -10z"/>
<path d="M3435 3670 c3 -5 8 -10 11 -10 2 0 4 5 4 10 0 6 -5 10 -11 10 -5 0
-7 -4 -4 -10z"/>
<path d="M4131 3494 c0 -11 3 -14 6 -6 3 7 2 16 -1 19 -3 4 -6 -2 -5 -13z"/>
<path d="M9460 3360 c0 -5 7 -10 16 -10 8 0 12 5 9 10 -3 6 -10 10 -16 10 -5
0 -9 -4 -9 -10z"/>
<path d="M9511 3361 c-9 -6 -10 -11 -2 -15 13 -8 31 1 31 15 0 11 -11 11 -29
0z"/>
<path d="M10220 2848 c0 -9 -6 -19 -12 -21 -10 -4 -9 -8 2 -16 11 -7 19 -6 30
4 12 13 12 17 -3 32 -15 16 -17 16 -17 1z"/>
<path d="M10510 2585 c-14 -16 -6 -35 16 -35 8 0 14 10 14 25 0 28 -12 32 -30
10z"/>
<path d="M10661 2481 c-11 -7 -10 -10 5 -14 16 -4 17 -5 2 -6 -47 -3 16 -51
67 -51 18 0 25 5 25 20 0 16 -7 20 -30 20 -23 0 -30 4 -30 20 0 21 -16 26 -39
11z"/>
<path d="M4287 1583 c-8 -7 11 -33 24 -33 5 0 9 9 9 20 0 19 -20 27 -33 13z"/>
<path d="M4565 1220 c-7 -12 2 -30 16 -30 5 0 9 9 9 20 0 21 -15 27 -25 10z"/>
<path d="M4670 496 c0 -8 12 -29 27 -46 l27 -32 19 26 c22 30 53 36 42 9 -14
-34 -10 -48 13 -51 16 -3 22 2 22 17 0 11 5 23 10 26 18 11 11 22 -25 39 -20
10 -45 14 -59 10 -13 -3 -27 -1 -30 5 -10 16 -46 13 -46 -3z"/>
<path d="M8330 400 c0 -5 5 -10 10 -10 6 0 10 5 10 10 0 6 -4 10 -10 10 -5 0
-10 -4 -10 -10z"/>
</g>
</svg>
