<?xml version="1.0" encoding="UTF-8"?>
<svg width="29px" height="63px" viewBox="0 0 29 63" version="1.1" xmlns="http://www.w3.org/2000/svg" xmlns:xlink="http://www.w3.org/1999/xlink">
    <!-- Generator: Sketch 50.2 (55047) - http://www.bohemiancoding.com/sketch -->
    <title>Path 4</title>
    <desc>Created with Sketch.</desc>
    <defs></defs>
    <g id="Page-3" stroke="none" stroke-width="1" fill="none" fill-rule="evenodd">
        <g id="homepage-play-track-3" transform="translate(-307.000000, -32.000000)" fill="#000000" fill-rule="nonzero">
            <path d="M331.557272,32.3014795 C331.943055,31.9880516 332.509876,32.0467065 332.823304,32.4324887 C333.136732,32.818271 333.078077,33.3850927 332.692295,33.6985205 C324.512704,40.3440088 318.306984,47.454516 314.068481,55.0282985 C310.747777,60.9620645 308.589708,70.0782889 308.937218,77.5799727 C309.339584,86.2658277 312.843525,91.744016 319.502111,92.5538227 C326.011083,93.3454336 331.099991,87.8562952 332.875434,79.6315851 C334.518407,72.0205392 332.482856,65.664778 328.203245,65.664778 C319.473114,65.664778 316.066548,70.343557 312.955161,82.7697996 C312.834431,83.2519709 312.345683,83.5449769 311.863511,83.4242468 C311.38134,83.3035167 311.088334,82.8147685 311.209064,82.3325972 C312.760709,76.1356451 314.083034,72.5276638 316.230006,69.5788858 C318.97314,65.8113038 322.822939,63.864778 328.203245,63.864778 C334.057402,63.864778 336.484512,71.4431316 334.634907,80.0113971 C332.686666,89.0365895 326.909628,95.2679764 319.284799,94.3406567 C311.592303,93.4051074 307.577611,87.1283932 307.139146,77.663267 C306.776071,69.8255672 309.013046,60.3760243 312.497721,54.1492569 C316.853305,46.3662628 323.208706,39.0842515 331.557272,32.3014795 Z" id="Path-4"></path>
        </g>
    </g>
</svg>